<?xml version="1.0" encoding="UTF-8" standalone="no"?>
<svg
   width="2500"
   height="2500"
   viewBox="0 0 314.96063 315"
   preserveAspectRatio="xMinYMin"
   version="1.1"
   id="svg3"
   sodipodi:docname="ansible.svg"
   inkscape:version="1.4.1-rc (06eac75fbf, 2025-03-29)"
   xmlns:inkscape="http://www.inkscape.org/namespaces/inkscape"
   xmlns:sodipodi="http://sodipodi.sourceforge.net/DTD/sodipodi-0.dtd"
   xmlns="http://www.w3.org/2000/svg"
   xmlns:svg="http://www.w3.org/2000/svg">
  <defs
     id="defs3" />
  <sodipodi:namedview
     id="namedview3"
     pagecolor="#505050"
     bordercolor="#ffffff"
     borderopacity="1"
     inkscape:showpageshadow="0"
     inkscape:pageopacity="0"
     inkscape:pagecheckerboard="1"
     inkscape:deskcolor="#505050"
     inkscape:zoom="0.3008"
     inkscape:cx="1017.2872"
     inkscape:cy="1250"
     inkscape:window-width="1920"
     inkscape:window-height="957"
     inkscape:window-x="0"
     inkscape:window-y="0"
     inkscape:window-maximized="1"
     inkscape:current-layer="svg3" />
  <path
     d="m 313.6853,156.77104 c 0,86.41821 -70.04959,156.46781 -156.47026,156.46781 C 70.802956,313.23885 0.746,243.18925 0.746,156.77104 0.746,70.358956 70.802956,0.302 157.21504,0.302 c 86.41944,0 156.47026,70.056956 156.47026,156.46904"
     fill="#1a1918"
     id="path2"
     style="stroke-width:1.22657" />
  <path
     d="M 160.3319,86.271741 208.22222,204.47209 135.88406,147.49 160.3319,86.273192 Z M 245.40899,231.70099 171.7434,54.417881 c -2.10357,-5.112402 -6.30781,-7.81948 -11.4115,-7.81948 -5.11385,0 -9.6242,2.707078 -11.72777,7.81948 L 67.751584,248.87484 h 27.658324 l 32.006192,-80.17505 95.51661,77.16477 c 3.8401,3.10603 6.61246,4.51179 10.21464,4.51179 7.21598,0 13.52379,-5.41125 13.52379,-13.21768 0,-1.27084 -0.44973,-3.28882 -1.26215,-5.45768 z"
     fill="#ffffff"
     id="path3"
     style="stroke-width:1.45073" />
</svg>
