<?xml version="1.0" encoding="UTF-8" standalone="no"?>
<svg
   width="2500"
   height="2500"
   viewBox="0 0 286.99552 287"
   preserveAspectRatio="xMinYMin"
   version="1.1"
   id="svg1"
   sodipodi:docname="auth0.svg"
   inkscape:version="1.4.1-rc (06eac75fbf, 2025-03-29)"
   xmlns:inkscape="http://www.inkscape.org/namespaces/inkscape"
   xmlns:sodipodi="http://sodipodi.sourceforge.net/DTD/sodipodi-0.dtd"
   xmlns="http://www.w3.org/2000/svg"
   xmlns:svg="http://www.w3.org/2000/svg">
  <defs
     id="defs1" />
  <sodipodi:namedview
     id="namedview1"
     pagecolor="#505050"
     bordercolor="#ffffff"
     borderopacity="1"
     inkscape:showpageshadow="0"
     inkscape:pageopacity="0"
     inkscape:pagecheckerboard="1"
     inkscape:deskcolor="#505050"
     inkscape:zoom="0.3008"
     inkscape:cx="1113.6968"
     inkscape:cy="1250"
     inkscape:window-width="1920"
     inkscape:window-height="957"
     inkscape:window-x="0"
     inkscape:window-y="0"
     inkscape:window-maximized="1"
     inkscape:current-layer="svg1" />
  <path
     d="m 220.79585,231.531 -28.73,-88.434 75.208,-54.64 h -92.966 l -28.733,-88.432 -0.009,-0.024 h 92.98 l 28.74,88.446 0.002,-0.002 0.024,-0.013 c 16.69,51.31 -0.5,109.67 -46.516,143.098 z m -150.449999,0 -0.023,0.017 75.227999,54.655 75.245,-54.67 -75.221,-54.656 -75.227999,54.654 z m -46.495,-143.097 c -17.5699999,54.088 2.825,111.4 46.481,143.108 l 0.007,-0.028 28.735,-88.429 -75.192,-54.63 H 116.82585 L 145.55985,0.024 145.56585,0 H 52.580851 l -28.731,88.434 z"
     fill="#eb5424"
     id="path1" />
</svg>
