<?xml version="1.0" encoding="UTF-8" standalone="no"?>
<svg
   width="2500"
   height="2500"
   viewBox="0 0 312.04291 312"
   preserveAspectRatio="xMidYMid"
   version="1.1"
   id="svg7"
   sodipodi:docname="aws-cloudformation.svg"
   inkscape:version="1.4.1-rc (06eac75fbf, 2025-03-29)"
   xmlns:inkscape="http://www.inkscape.org/namespaces/inkscape"
   xmlns:sodipodi="http://sodipodi.sourceforge.net/DTD/sodipodi-0.dtd"
   xmlns="http://www.w3.org/2000/svg"
   xmlns:svg="http://www.w3.org/2000/svg">
  <defs
     id="defs7" />
  <sodipodi:namedview
     id="namedview7"
     pagecolor="#505050"
     bordercolor="#ffffff"
     borderopacity="1"
     inkscape:showpageshadow="0"
     inkscape:pageopacity="0"
     inkscape:pagecheckerboard="1"
     inkscape:deskcolor="#505050"
     inkscape:zoom="0.3008"
     inkscape:cx="1023.9362"
     inkscape:cy="1250"
     inkscape:window-width="1920"
     inkscape:window-height="957"
     inkscape:window-x="0"
     inkscape:window-y="0"
     inkscape:window-maximized="1"
     inkscape:current-layer="svg7" />
  <path
     d="m 45.122597,218.0197 2.176,2.47 109.915003,31.157 0.498,-19.313 -76.980003,-19.318 -3.767,-1.359 -31.842,6.363"
     fill="#b7ca9d"
     id="path1" />
  <path
     d="m 268.1366,218.0197 -112.255,37.47 -0.334,-23.156 76.979,-19.318 3.355,-3.776 32.255,8.78"
     fill="#b7ca9d"
     id="path2" />
  <path
     d="m 155.5476,85.654704 76.979,17.940996 33.855,-1.606 1.755,-3.392996 -107.255,-38.607 -5.334,25.665"
     fill="#3c4929"
     id="path3" />
  <path
     d="m 80.731597,213.0157 -35.609,5.004 -0.991,-3.697 v -111.833 l 0.991,-3.892996 32.176,2.392996 3.433,2.61 v 109.416"
     fill="#759c3e"
     id="path4" />
  <path
     d="m 157.7116,85.654704 -76.980003,17.940996 -35.609,-4.998996 1.342,-2.107 110.749003,-31.52 0.498,20.685"
     fill="#3c4929"
     id="path5" />
  <path
     d="M 156.4776,2.4897041 28.631597,67.020704 l 0.061,182.612996 127.785003,64.497 1.904,-2.891 V 6.2397041 Z M 119.0936,240.2197 45.122597,218.0197 V 98.596704 l 73.971003,-22.192 z m 113.433,-27.204 35.61,5.004 1.995,-3.53 v -112.5 l -1.995,-3.392996 -35.61,5.002996 v 109.416"
     fill="#4b612c"
     id="path6" />
  <path
     d="m 156.4776,314.1307 128.093,-64.493 0.061,-182.611996 -128.154,-64.5359999 z m 37.687,-237.725996 73.972,22.192 V 218.0197 l -73.972,22.2 z"
     fill="#759c3e"
     id="path7" />
</svg>
