<?xml version="1.0" encoding="UTF-8" standalone="no"?>
<svg
   enable-background="new 0 0 100 100"
   height="2500"
   viewBox="0 0 2500 2500"
   width="2500"
   version="1.1"
   id="svg30"
   sodipodi:docname="aws-codebuild.svg"
   inkscape:version="1.4.1-rc (06eac75fbf, 2025-03-29)"
   xmlns:inkscape="http://www.inkscape.org/namespaces/inkscape"
   xmlns:sodipodi="http://sodipodi.sourceforge.net/DTD/sodipodi-0.dtd"
   xmlns="http://www.w3.org/2000/svg"
   xmlns:svg="http://www.w3.org/2000/svg">
  <defs
     id="defs30" />
  <sodipodi:namedview
     id="namedview30"
     pagecolor="#505050"
     bordercolor="#ffffff"
     borderopacity="1"
     inkscape:showpageshadow="0"
     inkscape:pageopacity="0"
     inkscape:pagecheckerboard="1"
     inkscape:deskcolor="#505050"
     inkscape:zoom="0.235"
     inkscape:cx="1472.3404"
     inkscape:cy="1148.9362"
     inkscape:window-width="1920"
     inkscape:window-height="957"
     inkscape:window-x="0"
     inkscape:window-y="0"
     inkscape:window-maximized="1"
     inkscape:current-layer="svg30" />
  <path
     d="m 655.40176,1492.7716 -141.44904,-25.9805 -251.14421,23.0937 124.12875,435.894 z"
     fill="#b7ca9d"
     id="path1"
     style="stroke-width:28.8672" />
  <path
     d="m 262.80851,993.36985 v 395.47995 l 127.01546,20.207 L 638.08147,1204.1 389.82397,976.04956 Z"
     fill="#4b612c"
     id="path2"
     style="stroke-width:28.8672" />
  <path
     d="m 389.82397,1518.752 265.57779,-25.9804 v 395.4799 l -265.57779,20.207 -101.03502,-207.8435 z"
     fill="#759c3e"
     id="path3"
     style="stroke-width:28.8672" />
  <path
     d="M 516.83944,918.31525 655.40176,895.22153 389.82397,453.55412 262.80851,895.22153 Z"
     fill="#3c4929"
     id="path4"
     style="stroke-width:28.8672" />
  <path
     d="m 389.82397,436.23383 265.57779,60.62102 V 895.22153 L 389.82397,866.35438 Z"
     fill="#759c3e"
     id="path5"
     style="stroke-width:28.8672" />
  <path
     d="m 389.82397,976.04956 265.57779,20.207 v 395.47994 l -265.57779,17.3203 z"
     fill="#759c3e"
     id="path6"
     style="stroke-width:28.8672" />
  <path
     d="M 655.40176,776.86621 857.47182,727.79206 580.34717,349.63238 389.82397,739.33892 Z"
     fill="#3c4929"
     id="path7"
     style="stroke-width:28.8672" />
  <path
     d="m 580.34717,340.97224 277.12465,77.9413 V 727.79206 L 580.34717,681.60462 Z"
     fill="#759c3e"
     id="path8"
     style="stroke-width:28.8672" />
  <path
     d="m 857.47182,1654.4276 -202.07006,-46.1874 -265.57779,37.5273 190.5232,398.3666 z"
     fill="#b7ca9d"
     id="path9"
     style="stroke-width:28.8672" />
  <path
     d="m 580.34717,1703.5018 277.12465,-49.0742 v 311.7652 l -277.12465,77.9413 -251.14421,-193.4099 z"
     fill="#759c3e"
     id="path10"
     style="stroke-width:28.8672" />
  <path
     d="m 2222.888,895.22153 -254.0309,23.09372 -337.7456,-57.7343 274.2379,-519.60871 z"
     fill="#3c4929"
     id="path11"
     style="stroke-width:28.8672" />
  <path
     d="M 389.82397,1645.7675 V 1518.752 l -127.01546,-28.8672 v 395.48 l 317.53866,158.7693 v -340.6323 z"
     fill="#4b612c"
     id="path12"
     style="stroke-width:28.8672" />
  <path
     d="m 2222.888,1489.8848 -254.0309,-23.0937 -340.6324,57.7343 277.1247,510.9486 z"
     fill="#b7ca9d"
     id="path13"
     style="stroke-width:28.8672" />
  <path
     d="m 1905.3494,340.97224 -274.2379,77.9413 v 441.66741 l 274.2379,-34.64058 300.2184,-178.97633 z"
     fill="#4b612c"
     id="path14"
     style="stroke-width:28.8672" />
  <path
     d="m 1905.3494,947.18241 -274.2379,23.09372 v 441.66737 l 274.2379,23.0938 300.2184,-233.824 z"
     fill="#4b612c"
     id="path15"
     style="stroke-width:28.8672" />
  <path
     d="m 1905.3494,1559.166 -274.2379,-31.7539 v 441.6674 l 274.2379,77.9414 277.1246,-317.5387 z"
     fill="#4b612c"
     id="path16"
     style="stroke-width:28.8672" />
  <path
     d="M 952.73342,211.07006 675.60877,652.73747 958.50685,704.69834 1244.2916,638.30389 Z"
     fill="#3c4929"
     id="path17"
     style="stroke-width:28.8672" />
  <path
     d="M 1810.0878,805.73337 1527.1897,843.26066 952.73342,747.99906 1244.2916,11.886715 Z"
     fill="#3c4929"
     id="path18"
     style="stroke-width:28.8672" />
  <path
     d="M 1244.2916,1530.2989 1789.8808,1192.5532 1244.2916,854.80752 952.73342,895.22153 V 1486.9981 Z"
     fill="#4b612c"
     id="path19"
     style="stroke-width:28.8672" />
  <path
     d="m 1244.2916,854.80752 v 675.49138 l 565.7962,-80.8281 V 935.63555 Z"
     fill="#759c3e"
     id="path20"
     style="stroke-width:28.8672" />
  <path
     d="m 1810.0878,1579.373 -282.8981,-37.5273 -574.45628,95.2616 291.55818,738.9991 z"
     fill="#b7ca9d"
     id="path21"
     style="stroke-width:28.8672" />
  <path
     d="m 1241.4049,1743.9158 -282.89805,-66.3945 -282.89808,54.8476 265.57779,482.0814 z"
     fill="#b7ca9d"
     id="path22"
     style="stroke-width:28.8672" />
  <path
     d="m 675.60877,1729.4822 v 360.8394 l 568.68283,285.7848 531.1556,-525.3822 -531.1556,-150.1092 -291.55818,-63.5077 v 176.0896 z"
     fill="#4b612c"
     id="path23"
     style="stroke-width:28.8672" />
  <path
     d="M 580.34717,681.60462 V 340.97224 L 262.80851,499.74157 V 895.22153 L 389.82397,866.35438 V 739.33892 Z"
     fill="#4b612c"
     id="path24"
     style="stroke-width:28.8672" />
  <path
     d="M 952.73342,571.90944 V 747.99906 L 1244.2916,684.49133 1766.7871,534.38215 1244.2916,9 675.60877,294.78479 v 360.83939 z"
     fill="#4b612c"
     id="path25"
     style="stroke-width:28.8672" />
  <g
     fill="#759c3e"
     id="g30"
     transform="matrix(28.867151,0,0,28.867151,-199.06591,-250.80436)">
    <path
       d="m 50,9 v 23.4 l 19.6,4.2 V 18.8 Z"
       id="path26" />
    <path
       d="M 84,39.7 V 26 L 72.9,20.5 v 16.8 z"
       id="path27" />
    <path
       d="M 84,56.8 V 43.1 L 72.9,41.6 v 16.8 z"
       id="path28" />
    <path
       d="M 50,67.6 V 91 L 69.6,81.2 V 63.4 Z"
       id="path29" />
    <path
       d="M 84,74 V 60.3 l -11.1,2.4 v 16.8 z"
       id="path30" />
  </g>
</svg>
