<?xml version="1.0" encoding="UTF-8" standalone="no"?>
<svg
   enable-background="new 0 0 100 100"
   height="2500"
   viewBox="0 0 2500 2500"
   width="2500"
   version="1.1"
   id="svg14"
   sodipodi:docname="aws-codepipeline.svg"
   inkscape:version="1.4.1-rc (06eac75fbf, 2025-03-29)"
   xmlns:inkscape="http://www.inkscape.org/namespaces/inkscape"
   xmlns:sodipodi="http://sodipodi.sourceforge.net/DTD/sodipodi-0.dtd"
   xmlns="http://www.w3.org/2000/svg"
   xmlns:svg="http://www.w3.org/2000/svg">
  <defs
     id="defs14" />
  <sodipodi:namedview
     id="namedview14"
     pagecolor="#505050"
     bordercolor="#ffffff"
     borderopacity="1"
     inkscape:showpageshadow="0"
     inkscape:pageopacity="0"
     inkscape:pagecheckerboard="1"
     inkscape:deskcolor="#505050"
     inkscape:zoom="0.16617009"
     inkscape:cx="616.83783"
     inkscape:cy="1516.5184"
     inkscape:window-width="1565"
     inkscape:window-height="1011"
     inkscape:window-x="26"
     inkscape:window-y="23"
     inkscape:window-maximized="0"
     inkscape:current-layer="svg14" />
  <path
     d="M 1257.8104,1561.5525 256.1172,1688.6109 536.82769,2111.1541 1579.8888,1602.9203 Z"
     fill="#b7ca9d"
     id="path1"
     style="stroke-width:29.5485" />
  <path
     d="M 1257.8104,961.71848 2262.4585,834.66004 1981.748,412.11688 935.73208,920.35062 Z"
     fill="#3c4929"
     id="path2"
     style="stroke-width:29.5485" />
  <path
     d="M 935.73208,920.35062 1981.748,751.92432 V 412.11688 L 935.73208,692.82737 Z"
     fill="#4b612c"
     id="path3"
     style="stroke-width:29.5485" />
  <path
     d="m 256.1172,1404.9456 1001.6932,100.4648 983.9642,-242.2975 -983.9642,-242.2975 -1001.6932,100.4648 z"
     fill="#4b612c"
     id="path4"
     style="stroke-width:29.5485" />
  <path
     d="m 2262.4585,1404.9456 -1004.6481,100.4648 v -484.595 l 1004.6481,100.4648 z"
     fill="#759c3e"
     id="path5"
     style="stroke-width:29.5485" />
  <path
     d="M 256.1172,834.66004 1257.8104,51.62551 1792.6378,695.78222 740.71216,896.71184 Z"
     fill="#3c4929"
     id="path6"
     style="stroke-width:29.5485" />
  <path
     d="M 256.1172,550.9947 1257.8104,51.62551 V 536.22047 L 256.1172,834.66004 Z"
     fill="#4b612c"
     id="path7"
     style="stroke-width:29.5485" />
  <g
     fill="#759c3e"
     id="g10"
     transform="matrix(29.548473,0,0,29.548473,-198.92928,-229.08498)">
    <path
       d="m 73.8,21.7 9.5,4.7 V 36 l -9.5,-2.8 z"
       id="path8" />
    <path
       d="M 60.2,62 24.9,67.7 V 79.2 L 60.2,69.7 Z"
       id="path9" />
    <path
       d="M 67.4,31.3 49.3,25.9 V 9.5 l 18.1,9 z"
       id="path10" />
  </g>
  <path
     d="M 2262.4585,1688.6109 1257.8104,2474.6003 722.98307,1827.4887 1774.9087,1626.5591 Z"
     fill="#b7ca9d"
     id="path11"
     style="stroke-width:29.5485" />
  <path
     d="m 2262.4585,1972.2762 -1004.6481,502.3241 v -484.595 l 1004.6481,-301.3944 z"
     fill="#759c3e"
     id="path12"
     style="stroke-width:29.5485" />
  <path
     d="m 722.98307,1827.4887 534.82733,162.5166 v 484.595 L 722.98307,2205.7092 Z"
     fill="#4b612c"
     id="path13"
     style="stroke-width:29.5485" />
  <path
     d="M 536.82769,2111.1541 256.1172,1972.2762 v -283.6653 l 280.71049,82.7357 z"
     fill="#4b612c"
     id="path14"
     style="stroke-width:29.5485" />
</svg>
