<?xml version="1.0" encoding="UTF-8" standalone="no"?>
<svg
   width="2500"
   height="728"
   viewBox="0 0 512 149"
   version="1.1"
   id="svg1"
   sodipodi:docname="express-109.svg"
   inkscape:version="1.4.1-rc (06eac75fbf, 2025-03-29)"
   xmlns:inkscape="http://www.inkscape.org/namespaces/inkscape"
   xmlns:sodipodi="http://sodipodi.sourceforge.net/DTD/sodipodi-0.dtd"
   xmlns="http://www.w3.org/2000/svg"
   xmlns:svg="http://www.w3.org/2000/svg">
  <defs
     id="defs1" />
  <sodipodi:namedview
     id="namedview1"
     pagecolor="#505050"
     bordercolor="#ffffff"
     borderopacity="1"
     inkscape:showpageshadow="0"
     inkscape:pageopacity="0"
     inkscape:pagecheckerboard="1"
     inkscape:deskcolor="#505050"
     showgrid="false"
     inkscape:zoom="0.246"
     inkscape:cx="1304.878"
     inkscape:cy="540.65041"
     inkscape:window-width="1920"
     inkscape:window-height="957"
     inkscape:window-x="0"
     inkscape:window-y="0"
     inkscape:window-maximized="1"
     inkscape:current-layer="svg1" />
  <rect
     style="fill:#f9f9f9;stroke-width:0.2048"
     id="rect1"
     width="511.49002"
     height="149.48813"
     x="0.073585071"
     y="-0.010407319" />
  <path
     d="M 23.393475,112.33503 V 59.878241 H 88.888744 V 56.809876 H 23.393475 V 8.9542517 H 93.029609 V 5.8868077 H 20.326031 V 115.40248 H 93.64273 v -3.06745 H 23.394396 Z M 152.69655,36.563089 125.54801,72.301757 99.011677,36.564009 H 95.023632 L 123.70681,74.603261 92.261828,115.40156 h 3.681485 l 29.602857,-38.499557 29.7566,38.499557 h 3.83431 L 127.5402,74.60142 156.37619,36.562168 h -3.68056 z m 15.6447,105.835101 V 93.316327 h 0.30656 c 1.8412,7.157673 5.47114,12.909593 10.89072,17.255753 5.41958,4.34524 12.32133,6.51878 20.70616,6.51878 5.41959,0 10.22605,-1.0992 14.41846,-3.2976 4.19242,-2.19839 7.69439,-5.18943 10.50683,-8.9731 2.81152,-3.78367 4.95928,-8.180462 6.44237,-13.191296 1.48217,-5.009913 2.22417,-10.276674 2.22417,-15.797521 0,-5.931435 -0.76778,-11.402569 -2.3015,-16.412482 -1.53373,-5.010834 -3.7579,-9.356993 -6.6716,-13.037558 -2.91463,-3.681485 -6.44237,-6.545476 -10.58416,-8.589211 -4.14086,-2.045577 -8.81936,-3.068365 -14.03457,-3.068365 -3.98804,0 -7.69438,0.588265 -11.11994,1.763873 -3.42556,1.176528 -6.46723,2.837293 -9.12592,4.985056 a 33.762137,33.762137 0 0 0 -6.90267,7.5922 c -1.94247,2.914625 -3.42556,6.110032 -4.44835,9.587144 h -0.30656 V 36.563089 h -3.06744 V 142.39819 Z m 31.90344,-28.22288 c -9.61107,0 -17.33216,-3.29759 -23.16049,-9.89278 -5.82832,-6.595188 -8.74295,-16.080144 -8.74295,-28.453028 0,-5.11302 0.71623,-9.970113 2.14776,-14.571279 1.43154,-4.601166 3.50197,-8.640766 6.2113,-12.116957 2.71025,-3.477111 6.0594,-6.237995 10.04653,-8.282651 3.98804,-2.045576 8.48794,-3.068364 13.49785,-3.068364 5.11302,0 9.58715,1.022788 13.42145,3.068364 3.83431,2.044656 7.00486,4.831317 9.50982,8.359061 2.50495,3.527745 4.39679,7.567344 5.6755,12.116956 1.2778,4.550533 1.9167,9.38185 1.9167,14.49487 0,4.602087 -0.58735,9.178397 -1.76388,13.728009 -1.1756,4.550533 -2.99103,8.640765 -5.44535,12.271619 -2.45341,3.62901 -5.59726,6.59427 -9.43249,8.89577 -3.83522,2.30058 -8.46216,3.45041 -13.88175,3.45041 z m 50.46369,1.22717 V 70.768035 c 0,-4.294605 0.61312,-8.487945 1.84121,-12.577256 1.22624,-4.090233 3.11807,-7.695308 5.67458,-10.813385 2.55651,-3.118998 5.80255,-5.573321 9.73997,-7.36297 3.93649,-1.78965 8.61498,-2.530734 14.03457,-2.224173 v -3.067444 c -4.70428,-0.101267 -8.81937,0.408747 -12.34711,1.533722 -3.52867,1.124975 -6.57033,2.658697 -9.12684,4.602086 -2.55651,1.942469 -4.60117,4.217275 -6.13489,6.825339 a 30.517938,30.517938 0 0 0 -3.37493,8.359061 h -0.30656 V 36.563089 h -3.06744 V 115.4034 h 3.06744 z m 35.12463,-38.806117 h 65.95465 c 0.20529,-5.419581 -0.33142,-10.633867 -1.61013,-15.644701 -1.2778,-5.010833 -3.32337,-9.45918 -6.13489,-13.344118 -2.81244,-3.885858 -6.44237,-7.004856 -10.89072,-9.356993 -4.44834,-2.352136 -9.73996,-3.527744 -15.87485,-3.527744 -4.39771,0 -8.69232,0.920601 -12.88473,2.761804 -4.19242,1.840282 -7.87391,4.523835 -11.04354,8.05158 -3.16963,3.527745 -5.72614,7.848127 -7.66861,12.962068 -1.94247,5.1121 -2.91462,10.940428 -2.91462,17.484984 0,5.828327 0.66467,11.273685 1.99402,16.335152 1.32935,5.061466 3.374,9.459175 6.13489,13.191295 2.7618,3.73212 6.31532,6.62097 10.66056,8.66562 4.34524,2.04558 9.58622,3.01681 15.72203,2.91463 8.99796,0 16.56531,-2.53166 22.70019,-7.5922 6.13581,-5.06239 9.76574,-12.194289 10.89072,-21.397541 h -3.06745 c -1.32934,8.692319 -4.73005,15.211101 -10.20026,19.556341 -5.47113,4.34615 -12.34711,6.51877 -20.63068,6.51877 -5.62395,0 -10.37886,-0.97123 -14.26472,-2.9137 -3.88494,-1.94247 -7.05549,-4.60209 -9.50981,-7.97609 -2.4534,-3.374925 -4.26883,-7.337194 -5.44444,-11.887727 -1.17653,-4.549612 -1.81542,-9.484036 -1.91761,-14.80143 z m 62.88721,-3.067444 h -62.88629 c 0.30564,-5.521767 1.32843,-10.481047 3.06652,-14.87784 1.73902,-4.397713 4.01383,-8.155608 6.82626,-11.273685 2.81152,-3.118998 6.08426,-5.495991 9.81638,-7.13282 3.73212,-1.635909 7.74594,-2.454323 12.04054,-2.454323 5.11302,0 9.61108,0.946378 13.49786,2.838214 3.88494,1.891836 7.1319,4.474123 9.73996,7.74594 2.60715,3.271818 4.57539,7.081267 5.90474,11.426505 1.32935,4.34616 1.99403,8.92247 1.99403,13.728009 z m 66.72243,-13.650678 h 3.06744 c 0,-8.794506 -2.55651,-15.185321 -7.66861,-19.173366 -5.11394,-3.988046 -12.06724,-5.982068 -20.86083,-5.982068 -4.90865,0 -9.04951,0.614041 -12.42444,1.841202 -3.374,1.226242 -6.13488,2.811517 -8.28265,4.753986 -2.14684,1.942469 -3.68056,4.090233 -4.60116,6.442369 -0.9206,2.352137 -1.38091,4.602087 -1.38091,6.748929 0,4.294606 0.76687,7.720164 2.30151,10.276674 1.53372,2.55651 3.93649,4.550533 7.20831,5.982068 2.24995,1.021868 4.80554,1.942469 7.66953,2.761805 2.86307,0.817494 6.18644,1.686542 9.97011,2.606222 3.37401,0.819336 6.69738,1.63683 9.97012,2.454324 3.27181,0.818415 6.16066,1.917613 8.66562,3.297594 2.50587,1.380902 4.55053,3.144775 6.13581,5.292538 1.58435,2.146842 2.37699,4.95928 2.37699,8.435471 0,3.374925 -0.79172,6.237991 -2.37699,8.589211 a 19.162319,19.162319 0 0 1 -6.05848,5.75284 c -2.45433,1.48217 -5.19035,2.55559 -8.20624,3.22026 -3.01681,0.66468 -5.9563,0.99701 -8.81937,0.99701 -9.30543,0 -16.43825,-2.07043 -21.39753,-6.21129 -4.95928,-4.14179 -7.43846,-10.660569 -7.43846,-19.557261 h -3.06837 c 0,9.919481 2.68447,17.179341 8.0525,21.781431 5.36895,4.60117 13.31926,6.90175 23.85186,6.90175 3.37401,0 6.77379,-0.38389 10.20027,-1.15075 3.42464,-0.76686 6.493,-2.01888 9.20233,-3.7579 a 20.798228,20.798228 0 0 0 6.59519,-6.74801 c 1.68746,-2.7618 2.53165,-6.135806 2.53165,-10.123851 0,-3.783672 -0.742,-6.851116 -2.22417,-9.203253 -1.48309,-2.351216 -3.42556,-4.294606 -5.82925,-5.828328 -2.40277,-1.533722 -5.1121,-2.735107 -8.12891,-3.604154 a 475.10399,475.10399 0 0 0 -9.12684,-2.531654 1589.5795,1589.5795 0 0 0 -11.27369,-2.913704 c -3.22026,-0.818415 -6.21129,-1.789649 -8.97218,-2.914624 -2.6587,-1.124975 -4.78068,-2.735107 -6.36596,-4.831316 -1.58527,-2.09621 -2.37699,-5.087244 -2.37699,-8.973103 0,-0.715307 0.20437,-1.994022 0.61312,-3.834305 0.40875,-1.841203 1.3809,-3.707262 2.91462,-5.599098 1.53373,-1.890915 3.88494,-3.578377 7.05549,-5.061466 3.16963,-1.482169 7.51579,-2.224173 13.03756,-2.224173 3.78367,0 7.23409,0.409667 10.35309,1.227161 3.11899,0.818415 5.80347,2.121987 8.0525,3.911636 2.24995,1.789649 3.98804,4.064455 5.2152,6.825339 1.22716,2.761804 1.84121,6.135809 1.84121,10.123854 z m 71.01611,0 h 3.06745 c 0,-8.794506 -2.55559,-15.185321 -7.66861,-19.173366 -5.11302,-3.988046 -12.06633,-5.982068 -20.86083,-5.982068 -4.90773,0 -9.04952,0.614041 -12.42352,1.841202 -3.37492,1.226242 -6.13581,2.811517 -8.28265,4.753986 -2.14776,1.942469 -3.68149,4.090233 -4.60209,6.442369 -0.9206,2.352137 -1.37998,4.602087 -1.37998,6.748929 0,4.294606 0.76686,7.720164 2.3015,10.276674 1.53281,2.55651 3.9365,4.550533 7.20831,5.982068 2.24995,1.021868 4.80554,1.942469 7.66861,2.761805 2.86307,0.817494 6.18645,1.686542 9.97012,2.606222 3.37492,0.819336 6.69829,1.63683 9.97011,2.454324 3.27274,0.818415 6.16067,1.917613 8.66654,3.297594 2.50496,1.380902 4.55054,3.144775 6.13489,5.292538 1.58528,2.146842 2.37791,4.95928 2.37791,8.435471 0,3.374925 -0.79263,6.237991 -2.37791,8.589211 a 19.162319,19.162319 0 0 1 -6.05756,5.75284 c -2.45524,1.48217 -5.19035,2.55559 -8.20716,3.22026 -3.01589,0.66468 -5.95629,0.99701 -8.81936,0.99701 -9.30544,0 -16.43734,-2.07043 -21.39662,-6.21129 -4.9602,-4.14179 -7.43938,-10.660569 -7.43938,-19.557261 h -3.06744 c 0,9.919481 2.68355,17.179341 8.0525,21.781431 5.36803,4.60117 13.31834,6.90175 23.85094,6.90175 3.37493,0 6.77471,-0.38389 10.20026,-1.15075 3.42464,-0.76686 6.49301,-2.01888 9.20326,-3.7579 a 20.798228,20.798228 0 0 0 6.59519,-6.74801 c 1.68746,-2.7618 2.53073,-6.135806 2.53073,-10.123851 0,-3.783672 -0.74109,-6.851116 -2.22417,-9.203253 -1.48217,-2.351216 -3.42464,-4.294606 -5.82833,-5.828328 -2.40277,-1.533722 -5.11302,-2.735107 -8.12891,-3.604154 a 475.09571,475.09571 0 0 0 -9.12685,-2.531654 1589.5565,1589.5565 0 0 0 -11.27368,-2.913704 c -3.22119,-0.818415 -6.21222,-1.789649 -8.9731,-2.914624 -2.6587,-1.124975 -4.78069,-2.735107 -6.36504,-4.831316 -1.58528,-2.09621 -2.37791,-5.087244 -2.37791,-8.973103 0,-0.715307 0.20437,-1.994022 0.61404,-3.834305 0.40874,-1.841203 1.3809,-3.707262 2.9137,-5.599098 1.53372,-1.890915 3.88586,-3.578377 7.05549,-5.061466 3.17055,-1.482169 7.51579,-2.224173 13.03848,-2.224173 3.78367,0 7.23408,0.409667 10.35308,1.227161 3.119,0.818415 5.80255,2.121987 8.0525,3.911636 2.24995,1.789649 3.98805,4.064455 5.21521,6.825339 1.22716,2.761804 1.8412,6.135809 1.8412,10.123854 z"
     fill="#222222"
     id="path1"
     style="stroke-width:0.920601" />
</svg>
