<?xml version="1.0" encoding="UTF-8" standalone="no"?>
<svg
   width="2500"
   height="2500"
   viewBox="0 0 416.93811 417"
   preserveAspectRatio="xMinYMin"
   version="1.1"
   id="svg38"
   sodipodi:docname="jenkins.svg"
   inkscape:version="1.4.1-rc (06eac75fbf, 2025-03-29)"
   xmlns:inkscape="http://www.inkscape.org/namespaces/inkscape"
   xmlns:sodipodi="http://sodipodi.sourceforge.net/DTD/sodipodi-0.dtd"
   xmlns="http://www.w3.org/2000/svg"
   xmlns:svg="http://www.w3.org/2000/svg">
  <defs
     id="defs38" />
  <sodipodi:namedview
     id="namedview38"
     pagecolor="#505050"
     bordercolor="#ffffff"
     borderopacity="1"
     inkscape:showpageshadow="0"
     inkscape:pageopacity="0"
     inkscape:pagecheckerboard="1"
     inkscape:deskcolor="#505050"
     showgrid="false"
     inkscape:zoom="0.3008"
     inkscape:cx="767.95213"
     inkscape:cy="1515.9574"
     inkscape:window-width="1920"
     inkscape:window-height="957"
     inkscape:window-x="0"
     inkscape:window-y="0"
     inkscape:window-maximized="1"
     inkscape:current-layer="svg38" />
  <path
     d="m 346.52124,202.31842 c 0,81.05973 -64.26939,146.8346 -143.59254,146.8346 -79.32316,0 -143.591382,-65.77487 -143.591382,-146.8346 0,-81.06089 64.269392,-146.835765 143.591382,-146.835765 79.32431,0 143.5937,65.774875 143.5937,146.835765"
     fill="#d33833"
     id="path1"
     style="stroke-width:1.16704" />
  <path
     d="m 65.242585,238.679 c 0,0 -10.421747,-153.086481 130.738665,-157.48859 l -9.84288,-16.44372 -76.54442,25.707756 -21.88567,25.128904 -19.106928,36.59282 -10.886232,42.61479 3.243229,28.48766"
     fill="#ef3d3a"
     id="path2"
     style="stroke-width:1.16704" />
  <path
     d="m 104.61415,102.15062 c -25.127731,25.82328 -40.76152,61.3751 -40.76152,100.74667 0,39.37155 15.633789,74.9222 40.76152,100.7455 25.24444,25.82329 59.86962,41.68815 98.31455,41.68815 38.44609,0 73.0701,-15.86486 98.31453,-41.68698 25.1289,-25.82447 40.76153,-61.37512 40.76153,-100.74667 0,-39.37274 -15.63263,-74.92339 -40.76153,-100.74667 -25.24326,-25.707765 -59.86844,-41.687 -98.31453,-41.687 -38.3294,0 -73.06894,15.863697 -98.31455,41.687 z M 98.245564,309.7803 C 71.496801,282.45151 54.936376,244.58544 54.936376,202.89729 c 0,-41.68816 16.560425,-79.55541 43.309188,-106.999728 26.749926,-27.328786 63.806076,-44.351364 104.684296,-44.351364 40.87705,0 77.93321,17.022578 104.68313,44.351364 26.74877,27.328778 43.30918,65.194858 43.30918,106.999728 0,41.68698 -16.56041,79.55422 -43.30918,106.88301 -26.74992,27.44432 -63.80608,44.35136 -104.68429,44.35136 -40.87706,0 -77.93321,-16.90704 -104.683136,-44.35136 z"
     fill="#231f20"
     id="path3"
     style="stroke-width:1.16704" />
  <path
     d="m 263.37716,203.12836 -21.88683,3.24207 -29.52868,3.35876 -19.10692,0.46332 -18.64362,-0.57886 -14.24383,-4.39977 -12.62279,-13.66615 -9.8429,-27.90764 -2.19988,-6.02197 -13.08496,-4.39978 -7.64417,-12.62163 -5.44195,-18.06593 6.02197,-15.86369 14.24383,-4.9798 11.46393,5.44312 5.44195,12.04394 6.60084,-1.04334 2.19987,-2.77874 -2.19987,-12.6228 -0.57887,-15.864867 3.24206,-21.88567 -0.11553,-12.506097 9.95842,-15.980402 17.48589,-12.622802 30.57203,-13.084954 33.92961,4.978631 29.52867,21.307981 13.66498,21.885669 8.79955,15.864865 2.20106,39.371566 -6.60083,33.92962 -12.04394,30.10869 -11.34723,16.09594"
     fill="#f0d6b7"
     id="path4"
     style="stroke-width:1.16704" />
  <path
     d="m 244.84909,297.73751 -78.16544,3.24207 v 13.08495 l 6.60084,45.97356 -3.24324,3.82093 -54.65757,-18.64362 -3.82091,-6.60083 -5.44312,-61.83726 -12.853883,-37.05614 -2.778743,-8.80071 43.772506,-30.10752 13.66498,-5.44312 12.04277,14.82152 10.42176,9.2652 12.04394,3.82093 5.44195,1.62219 6.60083,28.48649 4.9798,6.02198 12.62163,-4.40094 -8.80072,17.02141 47.47789,22.46569 -5.90527,3.24207"
     fill="#335061"
     id="path5"
     style="stroke-width:1.16704" />
  <path
     d="m 115.1526,106.89816 14.24383,-4.97862 11.46393,5.44195 5.44195,12.04394 6.60084,-1.04218 1.62219,-6.60083 -3.24323,-12.622796 3.24206,-30.10753 -2.77875,-16.443721 9.8429,-11.463922 21.3068,-16.90704 -6.02196,-8.221859 -30.10753,14.821523 -12.62164,9.844058 -7.06414,15.28484 -10.88507,14.82269 -3.24206,17.485894 2.19988,18.643603"
     fill="#6d6b6d"
     id="path6"
     style="stroke-width:1.16704" />
  <path
     d="m 137.6183,55.482655 c 0,0 8.22069,-20.264639 40.9926,-30.107531 32.77073,-9.84289 1.62219,-7.064147 1.62219,-7.064147 l -35.55298,13.664977 -13.66264,13.663809 -6.02198,10.885067 12.62281,-1.042175 m -16.44372,47.594595 c 0,0 -11.46509,-38.33056 32.30742,-43.77251 l -1.62104,-6.600828 -30.10753,7.064147 -8.80071,28.487666 2.19988,18.642435 6.02198,-3.82091"
     fill="#dcd9d8"
     id="path7"
     style="stroke-width:1.16704" />
  <path
     d="m 138.66048,153.9139 7.17851,-6.94861 c 0,0 3.24322,0.34778 3.82208,4.1687 0.57887,3.82208 2.19989,38.33056 25.70776,56.85863 2.19989,1.73657 -17.4859,-2.77992 -17.4859,-2.77992 l -17.48706,-27.32878 m 98.89457,-34.39294 c 0,0 1.27325,-16.55925 5.78972,-15.28483 4.51649,1.27325 4.51649,5.78856 4.51649,5.78856 0,0 -10.88507,6.94861 -10.30621,9.49627 m 45.39354,-60.678372 c 0,0 -9.03297,1.852107 -9.8429,9.842892 -0.81109,7.98962 9.8429,1.621031 11.46393,1.042174 M 218.56249,83.391465 c 0,0 -12.04396,1.621031 -12.04396,9.264035 0,7.64184 13.66498,7.06298 17.4859,3.820919 m -79.78647,22.465701 c 0,0 -20.72679,-12.62281 -22.92668,-0.57887 -2.19989,12.04279 -7.06414,20.7268 3.24206,33.3496 l -7.06414,-2.1999 -6.59966,-16.90702 -2.20106,-16.44373 12.6228,-13.08495 14.24266,1.04218 8.22187,6.60082 0.46332,8.22187 m 9.84289,-34.508481 c 0,0 9.26286,-48.173448 56.2786,-57.437482 38.67601,-7.643005 59.05736,1.622197 66.70035,10.421747 0,0 -34.50847,-40.9925968 -67.28037,-28.4864995 -32.77074,12.6228015 -56.85745,35.5506465 -56.2786,50.2577975 0.92663,25.24327 0.57885,25.24327 0.57885,25.24327 M 280.86189,42.86102 c 0,0 -15.8637,-0.578857 -16.44372,13.66381 0,0 0,2.201054 1.04334,4.400941 0,0 12.62164,-14.243833 20.26464,-6.600829"
     fill="#f7e4cd"
     id="path8"
     style="stroke-width:1.16704" />
  <path
     d="m 211.49834,62.431265 c 0,0 -2.77875,-21.770132 -21.30682,-9.148498 -12.04395,8.221861 -10.88623,19.685782 -8.80071,21.886838 2.19987,2.199887 1.62102,6.599662 3.24206,3.589842 1.62102,-3.010986 1.15771,-12.853878 7.17968,-15.633788 5.90527,-2.778743 15.86487,-5.788563 19.68579,-0.694394"
     fill="#f7e4cd"
     id="path9"
     style="stroke-width:1.16704" />
  <path
     d="m 160.08399,210.19251 -51.41785,22.92667 c 0,0 21.30799,84.76628 10.42176,111.05288 l -7.64184,-2.77874 -0.57885,-32.30858 -14.243841,-61.1417 -6.021975,-16.9082 53.615406,-36.1295 15.86485,15.286 m 5.21204,46.89904 7.29523,8.91741 v 32.77074 h -8.68401 c 0,0 -1.04218,-22.92785 -1.04218,-25.70659 0,-2.77991 1.04218,-12.6228 1.04218,-12.6228 m 1.62103,43.30919 -24.66558,1.04217 7.06415,4.9798 17.48472,2.77992"
     fill="#49728b"
     id="path10"
     style="stroke-width:1.16704" />
  <path
     d="m 249.71336,298.31638 20.26347,-0.57887 4.97979,50.25664 -20.72796,2.77991 -4.51647,-52.45885"
     fill="#335061"
     id="path11"
     style="stroke-width:1.16704" />
  <path
     d="m 255.15531,298.31638 30.57084,-1.6222 c 0,0 12.62281,-31.72856 12.62281,-33.3496 0,-1.62219 10.88506,-45.97239 10.88506,-45.97239 l -24.66558,-25.70776 -4.97981,-4.39976 -13.08494,13.08494 v 50.83665 l -11.34838,47.13012"
     fill="#335061"
     id="path12"
     style="stroke-width:1.16704" />
  <path
     d="m 268.81911,294.49429 -19.10692,3.82209 2.7799,15.28601 c 7.06299,3.24205 19.10693,-5.44312 19.10693,-5.44312 m -2.20104,-109.43069 38.33055,28.48651 1.04217,-13.08613 -28.94982,-26.74877 -10.42175,11.34839"
     fill="#49728b"
     id="path13"
     style="stroke-width:1.16704" />
  <path
     d="m 184.51733,406.01048 -11.34838,-45.97239 -5.6742,-33.9296 -0.92664,-25.12891 51.29881,-2.77874 h 31.84527 l -2.89429,57.43631 4.97864,44.35136 -0.57886,8.22187 -41.57262,3.24322 -25.12773,-5.44312"
     fill="#ffffff"
     id="path14"
     style="stroke-width:1.16704" />
  <path
     d="m 242.64804,297.73751 c 0,0 -2.77875,56.85864 5.44311,97.38792 0,0 -16.44372,10.42174 -40.4149,13.08495 l 45.97356,-1.62103 5.44195,-3.24207 -6.59967,-89.62936 -1.73773,-19.22363"
     fill="#dcd9d8"
     id="path15"
     style="stroke-width:1.16704" />
  <path
     d="m 275.76772,343.70992 21.30682,-6.02199 40.41491,-2.19987 6.02196,-18.64362 -10.88623,-32.30858 -12.62163,-1.62103 -17.48589,5.44311 -16.67597,8.22187 -8.91626,-1.62219 -6.9486,2.77989"
     fill="#ffffff"
     id="path16"
     style="stroke-width:1.16704" />
  <path
     d="m 275.41994,332.70931 c 0,0 14.24384,-6.60082 16.44372,-6.02197 l -6.02197,-30.10753 7.06415,-2.77992 c 0,0 4.97979,28.48767 4.97979,31.72973 0,0 30.57085,1.62104 33.3496,1.62104 0,0 6.60082,-12.62281 4.97979,-25.70776 l 6.02198,17.48589 0.57885,9.8429 -8.80071,13.08494 -9.84288,2.20106 -16.44373,-0.57885 -5.44312,-7.06416 -19.10693,2.77875 -6.02197,2.20106"
     fill="#dcd9d8"
     id="path17"
     style="stroke-width:1.16704" />
  <path
     d="m 253.88088,293.91543 -12.04394,-30.57085 -12.62163,-18.06591 c 0,0 2.77991,-7.64184 6.60082,-7.64184 h 12.6228 l 12.04395,4.39978 -1.04335,20.2658 -5.55865,31.61302"
     fill="#ffffff"
     id="path18"
     style="stroke-width:1.16704" />
  <path
     d="m 256.31302,283.49369 c 0,0 -15.28601,-29.52868 -15.28601,-33.92962 0,0 2.7799,-6.60083 6.60083,-4.97863 3.82208,1.62104 12.04395,6.02197 12.04395,6.02197 V 240.1845 l -18.64478,-3.82092 -12.62164,1.62104 21.30682,50.48887 4.39977,0.57885"
     fill="#dcd9d8"
     id="path19"
     style="stroke-width:1.16704" />
  <path
     d="m 189.38043,211.35021 -15.16932,-1.62219 -14.24383,-4.39977 v 4.9798 l 6.94744,7.64299 21.88685,9.8429"
     fill="#ffffff"
     id="path20"
     style="stroke-width:1.16704" />
  <path
     d="m 164.94709,212.97125 c 0,0 16.90587,7.06415 22.46569,5.44312 l 0.57769,6.60083 -15.28485,-3.24323 -9.26403,-6.60082 1.5055,-2.1999"
     fill="#dcd9d8"
     id="path21"
     style="stroke-width:1.16704" />
  <path
     d="m 275.76772,239.49011 c -9.26403,-0.23225 -17.71814,-1.38996 -25.01336,-3.47431 0.46332,-3.01099 -0.46332,-5.90527 0.34779,-8.10632 2.08434,-1.5055 5.44195,-1.5055 8.56846,-1.85212 -2.6632,-1.27441 -6.48412,-1.85327 -9.4951,-1.04216 -0.11671,-2.08435 -1.04218,-3.35877 -1.62221,-4.9798 5.21205,-1.85328 17.48706,-14.01159 24.43451,-10.07514 3.35876,1.96881 4.74872,12.85388 4.9798,18.297 0.23108,4.39978 -0.46331,8.80072 -2.19989,11.23285"
     fill="#d33833"
     id="path22"
     style="stroke-width:1.16704" />
  <path
     d="m 275.76772,239.49011 c -9.26403,-0.23225 -17.71814,-1.38996 -25.01336,-3.47431 0.46332,-3.01099 -0.46332,-5.90527 0.34779,-8.10632 2.08434,-1.5055 5.44195,-1.5055 8.56846,-1.85212 -2.6632,-1.27441 -6.48412,-1.85327 -9.4951,-1.04216 -0.11671,-2.08435 -1.04218,-3.35877 -1.62221,-4.9798 5.21205,-1.85328 17.48706,-14.01159 24.43451,-10.07514 3.35876,1.96881 4.74872,12.85388 4.9798,18.297 0.23108,4.39978 -0.46331,8.80072 -2.19989,11.23285 z"
     stroke="#d33833"
     stroke-width="2.33409"
     id="path23" />
  <path
     d="m 231.41637,224.31964 c 0,0.69556 0,1.38878 -0.11671,2.08434 -2.89429,1.85328 -7.52747,1.85328 -10.76953,3.47431 4.63318,0.23107 8.33855,1.38879 11.58062,2.89428 -0.1167,1.73773 -0.1167,3.59101 -0.23107,5.32758 -5.32758,3.58984 -10.19068,9.03296 -16.44372,12.5061 -3.01098,1.6222 -13.31719,5.7909 -16.44372,4.9798 -1.73774,-0.46333 -1.96882,-2.66321 -2.66322,-4.74756 -1.50548,-4.39978 -4.97978,-11.58063 -5.32757,-18.297 -0.34778,-8.45294 -1.27325,-22.69677 7.87408,-20.96019 7.41076,1.38995 15.9804,4.74872 21.6546,7.87524 3.58984,2.08435 5.55866,4.39978 10.88624,4.8631"
     fill="#d33833"
     id="path24"
     style="stroke-width:1.16704" />
  <path
     d="m 231.41637,224.31964 c 0,0.69556 0,1.38878 -0.11671,2.08434 -2.89429,1.85328 -7.52747,1.85328 -10.76953,3.47431 4.63318,0.23107 8.33855,1.38879 11.58062,2.89428 -0.1167,1.73773 -0.1167,3.59101 -0.23107,5.32758 -5.32758,3.58984 -10.19068,9.03296 -16.44372,12.5061 -3.01098,1.6222 -13.31719,5.7909 -16.44372,4.9798 -1.73774,-0.46333 -1.96882,-2.66321 -2.66322,-4.74756 -1.50548,-4.39978 -4.97978,-11.58063 -5.32757,-18.297 -0.34778,-8.45294 -1.27325,-22.69677 7.87408,-20.96019 7.41076,1.38995 15.9804,4.74872 21.6546,7.87524 3.58984,2.08435 5.55866,4.39978 10.88624,4.8631 z"
     stroke="#d33833"
     stroke-width="2.33409"
     id="path25" />
  <path
     d="m 236.62724,234.39477 c -0.81111,-4.63318 -1.73773,-5.90527 -1.38996,-9.9596 12.39056,-8.22186 14.59044,14.1283 1.38878,9.9596"
     fill="#d33833"
     id="path26"
     style="stroke-width:1.16704" />
  <path
     d="m 236.62724,234.39477 c -0.81111,-4.63318 -1.73773,-5.90527 -1.38996,-9.9596 12.39056,-8.22186 14.59044,14.1283 1.38878,9.9596 z"
     stroke="#d33833"
     stroke-width="2.33409"
     id="path27" />
  <path
     d="m 254.45975,238.10015 c 0,0 -3.82093,-5.44311 -1.04218,-7.06415 2.7799,-1.62103 5.44311,0 7.06415,-2.77874 1.62219,-2.77992 0,-4.39978 0.57885,-7.64301 0.57885,-3.24206 3.24206,-3.82091 6.02198,-4.39977 2.77874,-0.58002 10.42175,-1.62221 11.46392,1.04217 l -3.24206,-9.84406 -6.60083,-2.19989 -20.72796,12.04395 -1.04217,6.02197 v 12.04279 m -49.91003,20.84349 c -0.6944,-8.56964 -1.38878,-17.02258 -2.08434,-25.59222 -1.15772,-12.73716 3.01098,-10.53846 14.12713,-10.53846 1.73773,0 10.42174,1.96999 11.00176,3.2444 3.01099,6.13635 -4.97979,4.7464 3.47314,9.37842 7.06415,3.82207 19.68695,-2.31544 16.7915,-11.00061 -1.62219,-1.96881 -8.33739,-0.57885 -10.76953,-1.85328 l -12.85387,-6.59966 c -5.44195,-2.77991 -17.94921,-6.94861 -23.73895,-3.01098 -14.70715,9.95842 0.92664,34.97179 6.13751,45.39354"
     fill="#ef3d3a"
     id="path28"
     style="stroke-width:1.16704" />
  <path
     d="m 211.49834,62.431265 c -14.93823,-3.474306 -22.349,6.253047 -26.86547,16.327015 -4.05316,-0.92547 -2.43213,-6.484125 -1.38879,-9.262868 2.66204,-7.295223 13.43273,-17.139281 22.23228,-15.749326 3.70539,0.463318 8.80072,3.937624 6.02198,8.685179 m 72.60679,16.905872 h 0.69438 c 3.35877,6.94861 6.25306,14.360537 10.53845,20.613586 -2.89428,6.716367 -21.53905,12.506097 -21.30797,0.694397 4.05316,-1.736571 11.00177,-0.34778 14.59161,-2.663209 -2.08435,-5.674192 -4.9798,-10.538452 -4.51647,-18.643607 m -65.07933,0.232243 c 3.24206,5.905267 4.28307,12.042778 8.79955,16.44372 2.08552,1.967644 6.02197,4.399773 4.05433,9.957263 -0.46331,1.27442 -3.82208,4.16987 -5.79089,4.74872 -7.06299,2.08435 -23.62342,0.46332 -18.06476,-8.45411 5.90527,0.23225 13.78052,3.8221 18.18146,-0.46331 -3.35877,-5.326411 -9.38075,-15.980402 -7.17969,-22.232283 m 62.41612,59.519503 c -10.654,6.83307 -22.5824,14.36053 -40.18267,12.6228 -3.70537,-3.24206 -5.21087,-10.53845 -1.50549,-15.28484 1.85211,3.24206 0.69439,9.26403 6.02197,10.1895 9.95843,1.73773 21.53789,-6.13751 28.71757,-8.79955 4.39978,-7.52746 -0.34662,-10.19067 -4.39977,-15.05493 -8.22186,-9.84289 -19.10693,-22.11791 -18.76032,-36.823897 3.35877,-2.43213 3.58985,3.705379 4.05317,4.747555 4.28423,9.958432 15.05493,22.812312 22.81231,31.381952 1.96881,2.08435 5.09533,4.1687 5.44311,5.55865 1.04218,3.93646 -2.66321,8.79955 -2.19988,11.46392 m -141.04605,-7.17969 c -3.3576,-1.96881 -4.16753,-10.3062 -8.10515,-10.53845 -5.67419,-0.3466 -4.63202,10.88624 -4.63202,17.4859 -3.82091,-3.47314 -4.51647,-14.35937 -1.73656,-19.91685 -3.24207,-1.62221 -4.6332,1.73656 -6.4853,2.89427 2.43214,-16.79033 24.66559,-7.75854 20.9602,10.07513 m 147.76124,14.24268 c -4.9798,9.49627 -12.04394,19.91802 -26.63439,20.26581 -0.34778,-3.011 -0.57885,-7.75856 0,-9.61182 11.23285,-1.15772 18.18029,-6.83191 26.63439,-10.65399 m -69.94358,6.1375 c 9.26404,4.86426 26.40215,5.44311 39.14049,5.09534 0.69439,2.77991 0.69439,6.25305 0.69439,9.61182 -16.32701,0.69439 -35.55064,-3.35877 -39.83488,-14.70716 m -1.73657,9.03296 c 6.48412,16.21148 28.60203,14.35937 47.24565,13.89606 -0.80993,2.08434 -2.54767,4.63201 -4.8631,5.44195 -6.02197,2.43212 -22.46569,4.2854 -30.80308,-0.11554 -5.21088,-2.77874 -8.68519,-9.1485 -11.57947,-12.85388 -1.27441,-1.73657 -8.22185,-6.25305 0,-6.36859"
     fill="#231f20"
     id="path29"
     style="stroke-width:1.16704" />
  <path
     d="m 280.63081,250.60625 c -7.52746,12.96941 -14.82151,26.2866 -23.73777,37.63499 3.70422,-11.0006 5.32525,-29.52867 5.90526,-43.6558 7.87409,-3.70654 14.59045,0.80993 17.83251,6.02197"
     fill="#81b0c4"
     id="path30"
     style="stroke-width:1.16704" />
  <path
     d="m 321.2768,297.15866 c -8.45294,1.73658 -14.35938,9.95843 -22.69678,9.37957 4.63203,-6.36975 12.50611,-9.14849 22.69678,-9.37957 m 3.70538,13.20049 c -6.94744,0.69557 -15.05376,1.85328 -22.0012,1.27443 3.35759,-5.09535 16.09593,-3.24324 22.0012,-1.27443 m 2.43214,11.46509 c -7.75856,0.11555 -17.37037,0 -24.78113,-0.58002 4.39978,-4.74756 19.80132,-1.73657 24.78113,0.58002"
     fill="#231f20"
     id="path31"
     style="stroke-width:1.16704" />
  <path
     d="m 266.04036,353.08949 c 1.15772,9.72735 4.97981,19.57141 4.51649,30.22423 -4.28541,1.38879 -6.71636,2.66321 -12.50727,2.66321 -0.3466,-9.03296 -1.62102,-22.92784 -1.27324,-31.61303 2.77874,0.23107 6.94744,-1.96881 9.26402,-1.27441"
     fill="#dcd9d8"
     id="path32"
     style="stroke-width:1.16704" />
  <path
     d="m 253.53428,209.49811 c -3.93763,2.5465 -7.17969,5.67304 -11.00178,8.45293 -8.33739,0.46333 -12.85388,-0.57885 -18.87469,-5.3264 0.11555,-0.34778 0.6944,-0.23225 0.6944,-0.69557 8.91626,3.93763 20.26464,-1.62102 29.18207,-2.43212"
     fill="#f0d6b7"
     id="path33"
     style="stroke-width:1.16704" />
  <path
     d="m 206.98185,270.06095 c 2.43213,-10.53845 12.04395,-16.09594 20.72796,-21.88566 8.91625,11.34838 14.35938,25.93882 20.38134,40.06595 -14.24383,-4.28424 -28.71874,-11.11613 -41.1093,-18.18029"
     fill="#81b0c4"
     id="path34"
     style="stroke-width:1.16704" />
  <path
     d="m 256.77634,354.47945 c -0.34778,8.68517 0.80993,22.46568 1.27324,31.61302 5.79091,0 8.22186,-1.27325 12.50727,-2.66321 0.46332,-10.65399 -3.35877,-20.49688 -4.51649,-30.22423 -2.31658,-0.80994 -6.48528,1.38994 -9.26402,1.27442 z m -89.3983,-49.09893 c 3.8221,34.85509 9.26405,64.03599 19.33801,94.95578 22.35016,6.83191 49.21562,7.41076 69.01811,1.27325 -3.58984,-17.36919 -2.08435,-38.56046 -4.16869,-57.20523 -1.62221,-14.0116 -0.81111,-28.02319 -3.011,-42.26703 -23.97118,-4.97863 -57.78409,-1.15771 -81.17643,3.24323 z m 86.85062,-3.01098 c -0.23224,14.93823 0.6944,29.75975 1.85328,44.69797 5.78857,-0.80993 9.61065,-1.38878 14.93823,-2.66319 -1.73774,-14.35938 -1.50549,-30.6864 -5.09533,-43.42474 -4.05317,0.1167 -7.64418,0 -11.69618,1.3888 z m 29.06536,-2.43214 c -2.77874,-0.57885 -5.90527,0 -8.45294,0 1.27326,12.15949 4.1687,25.59222 5.21088,38.4461 4.05317,0.11554 6.25305,-1.85327 9.61182,-2.43213 0.23107,-11.23284 -0.92664,-26.74992 -6.36976,-36.01397 z m 44.1203,40.29821 c 8.56963,-2.08435 13.89604,-12.5061 11.46391,-23.27563 -1.62103,-7.17968 -4.39978,-20.84349 -7.52747,-25.47667 -2.19989,-3.3576 -8.33739,-7.87409 -13.31602,-4.74756 -7.99079,5.09533 -22.00238,6.60083 -27.7921,12.73834 2.89427,9.72736 3.82091,22.92901 4.97862,35.20286 9.9596,0.58003 22.11792,-2.77758 30.45648,0.81111 -5.79089,1.85327 -13.20166,1.85327 -18.18146,4.63201 4.1687,1.96881 13.66498,1.62219 19.91804,0.11671 z m -79.4387,-51.99437 c -6.02198,-14.12713 -11.46392,-28.71757 -20.38135,-40.06595 -8.68517,5.78855 -18.18029,11.34838 -20.72795,21.88566 12.50609,7.06416 26.98217,13.89605 41.1093,18.18029 z m 14.82152,-43.6558 c -0.57885,14.12713 -2.19988,32.6552 -5.90527,43.6558 8.91626,-11.46393 16.21265,-24.66558 23.73894,-37.63499 -3.24206,-5.21088 -9.95842,-9.72735 -17.83251,-6.02198 z m -16.79033,-5.90526 c -3.35877,-0.34896 -6.25305,3.93645 -10.65399,2.08318 -1.04219,1.1577 -1.96882,2.31658 -3.011,3.4743 9.72737,11.81053 14.24384,28.48766 21.77131,42.26702 4.05316,-13.31603 3.58985,-27.79211 4.51647,-42.26702 -5.55864,0.23108 -8.68517,-5.21087 -12.62279,-5.55866 z m -10.76953,-14.24501 c -0.34777,4.05317 0.57885,5.32758 1.38878,9.9596 13.20166,4.1687 11.00178,-18.18146 -1.38878,-9.9596 z m -14.70715,-4.86309 c -5.6742,-3.12769 -14.24266,-6.48529 -21.6546,-7.87407 -9.14733,-1.73775 -8.22186,12.50608 -7.87408,20.96019 0.34779,6.7152 3.82209,13.77935 5.32757,18.29583 0.6944,2.08435 0.92548,4.28423 2.66322,4.74755 3.12653,0.69557 13.54827,-3.35759 16.44372,-4.9798 6.25304,-3.35759 11.11614,-8.79954 16.44372,-12.5061 0.11554,-1.73657 0.11554,-3.58983 0.23107,-5.32641 -3.24207,-1.62219 -6.8319,-2.6632 -11.58062,-2.89429 3.12768,-1.62219 7.87524,-1.62219 10.76953,-3.47429 0,-0.69556 0,-1.38996 0.11671,-2.08552 -5.32758,-0.57885 -7.2964,-2.89428 -10.88624,-4.86309 z m -54.42534,-9.84289 c -4.74755,4.86308 13.31604,11.34839 18.9914,11.69616 0,-3.01098 1.73657,-5.90526 1.38878,-8.10633 -6.83191,-1.1577 -15.74816,-0.34777 -20.38018,-3.58983 z m 58.36413,2.19988 c 0,0.46332 -0.58002,0.34779 -0.69556,0.69557 6.13751,4.74755 10.65282,5.78857 18.87468,5.3264 3.70655,-2.66321 7.06415,-5.90526 11.00177,-8.45409 -9.03296,0.8111 -20.38134,6.36975 -29.18206,2.43212 z m 53.49869,16.21265 c -0.23108,-5.32758 -1.6222,-16.32819 -4.9798,-18.297 -6.94745,-4.05316 -19.22246,8.22186 -24.43334,10.07513 0.57886,1.62104 1.50549,2.89429 1.62104,4.97864 3.12769,-0.80994 6.8319,-0.23108 9.4951,1.04218 -3.12651,0.34778 -6.48412,0.34778 -8.56846,1.85327 -0.69556,2.19989 0.23106,5.09533 -0.34779,8.10632 7.29522,2.08436 15.74933,3.12653 25.01336,3.47314 1.73658,-2.31542 2.43097,-6.71636 2.19989,-11.23168 z M 158.11402,214.36121 c -1.5055,-1.04219 -11.57947,-14.1283 -12.96943,-13.54944 -18.18029,7.18085 -35.20286,19.57141 -50.37333,31.38194 14.47491,31.15087 20.38134,69.24919 21.42352,105.95755 16.56042,7.75854 31.14971,18.99139 53.73094,20.1491 -2.66322,-18.41136 -4.97863,-34.97179 -6.48413,-52.34215 -5.67419,-2.43096 -13.78052,0.11671 -19.10693,-0.69439 0,-6.36858 8.10516,-2.77875 8.79955,-7.06298 0.4645,-3.24322 -4.51648,-3.47431 -2.89427,-8.56965 4.16869,1.50549 6.36858,4.8631 10.76953,6.13751 4.05315,-8.80071 0,-24.43334 0.57885,-31.84526 0.11671,-1.38879 0.6944,-7.643 3.82091,-6.60083 2.77992,0.92664 -0.11554,16.7915 0.11671,23.73894 0.23108,6.4853 -0.8111,12.62281 1.8521,16.67596 21.7713,-3.01098 43.88922,-4.86425 67.51147,-5.55864 -5.21089,-2.19989 -11.3484,-4.28425 -18.06477,-8.10632 -3.70537,-2.08436 -15.16929,-6.36859 -16.21147,-9.8429 -1.73774,-5.55866 4.39977,-8.45293 5.44194,-13.20165 -11.0006,6.02196 -13.08495,-5.78857 -15.74815,-14.0116 -2.31659,-7.52746 -3.70538,-13.20048 -4.28424,-17.48589 -9.61182,-4.8631 -19.80248,-9.37958 -27.9088,-15.1693 z M 268.3558,202.31726 c 15.17046,-7.29406 17.94921,27.44549 11.92723,38.67834 0.92664,3.35759 4.05316,4.63201 5.32759,7.64184 -8.45411,15.17046 -17.83251,29.2976 -26.51886,44.23582 6.36975,-4.05316 15.63379,-0.69439 23.16009,-3.70539 2.77991,-1.04216 4.74872,-7.41076 6.83306,-12.50608 5.78857,-13.89606 11.81055,-31.49867 14.47492,-44.69799 0.57885,-3.01098 2.31543,-9.61297 1.8521,-12.27618 -0.6944,-4.8631 -7.17968,-8.45294 -10.53845,-11.34838 -6.13634,-5.55866 -9.95842,-10.30505 -16.44372,-15.51709 -2.43096,3.82209 -7.98962,6.36859 -10.07396,9.49627 z M 123.49,67.873215 c -7.17968,7.990783 -5.67419,22.813473 -4.86309,33.466295 13.08496,-8.220691 30.33977,0.69557 30.22307,14.59161 6.25304,-0.1167 2.31659,-7.75853 1.15888,-12.73833 -3.70655,-16.095945 6.25304,-33.466302 0.46215,-48.172286 -11.23168,0.925469 -20.38018,5.441949 -26.98101,12.853877 z m 51.64659,-46.20347 c -16.32701,4.632016 -37.28722,16.559257 -44.00358,31.265242 5.21086,-0.809932 8.80071,-3.3576 13.89605,-3.705381 1.96881,-0.115537 4.51648,0.8111 6.71636,0.232243 4.39978,-1.157713 8.22186,-11.117309 11.57946,-14.82269 3.24323,-3.589841 7.17969,-5.210873 9.84407,-8.452935 1.73656,-0.8111 4.28306,-0.8111 4.39977,-3.358767 -0.6944,-0.811099 -1.5055,-1.388789 -2.43213,-1.157712 z m 85.11288,4.399773 c -17.02141,-9.610647 -45.74015,-16.7903334 -63.8049,-7.758541 -14.59161,7.295223 -34.27623,19.338002 -40.99376,34.509639 6.25304,14.704817 -1.8521,28.137551 -2.43213,43.075778 -0.23108,7.990786 3.70654,14.823856 4.05316,23.509036 -2.19988,3.58985 -8.68519,3.93645 -13.2005,3.70538 -1.50549,-7.64417 -4.1687,-16.21265 -12.04394,-17.13928 -11.11614,-1.27325 -19.338,7.99078 -19.80132,17.6026 -0.57886,11.34838 8.68518,30.10753 21.88567,28.83428 5.09533,-0.46332 6.36975,-5.55866 11.92724,-5.55866 3.01099,6.02197 -4.63085,7.87408 -5.44195,12.15832 -0.23223,1.15888 0.57885,5.44312 1.15771,7.52746 2.43213,9.8429 7.75855,22.69677 12.96942,30.22424 6.71636,9.61066 19.80249,11.0006 33.92961,11.92724 2.54767,-5.44312 11.81171,-4.9798 17.83251,-3.58984 -7.29405,-2.89428 -14.01042,-9.84289 -19.56907,-15.9804 -6.36976,-7.06416 -12.85388,-14.59044 -13.20167,-23.85449 12.15949,16.79033 22.11792,31.49749 44.1203,38.90942 16.67478,5.55749 36.1295,-2.54883 48.98338,-11.58063 5.32641,-3.70655 8.45293,-9.72735 12.27502,-15.05493 14.12713,-20.38018 20.72796,-49.33116 19.338,-77.46988 C 297.6534,88.4868 297.6534,76.906174 293.71577,69.147632 289.66378,61.04131 275.88326,53.630548 267.77694,61.04131 266.27144,53.051692 274.4933,48.187432 284.10395,51.08288 277.27322,42.166626 270.09353,31.628173 260.24947,26.069518 Z M 291.9792,287.89462 c 13.31719,-6.60082 38.09831,-17.71813 46.32018,0 3.12769,6.59967 6.71636,17.60144 8.22186,24.43334 2.19988,9.49628 -2.43214,29.64538 -12.27503,32.77074 -8.68517,2.77991 -18.75915,2.66438 -29.18089,0.58003 -1.27441,-1.04218 -2.54766,-2.77992 -3.58985,-4.63318 -7.41076,-0.23108 -14.4749,0.34894 -20.2658,3.47546 0.57886,5.55749 -3.12652,6.36859 -6.71637,7.52747 -2.54766,10.30505 5.21088,23.73777 3.35877,33.00181 -1.27441,6.71637 -9.49627,7.75854 -15.51708,8.91625 -0.23225,3.70655 0.23108,6.83308 0.69439,9.95961 -1.38878,5.09532 -7.52747,7.98961 -13.43273,8.68517 -19.33801,2.31542 -48.6356,3.3576 -67.16367,-3.35877 -5.21204,-12.73717 -9.26403,-28.13872 -13.54944,-42.61362 -18.06475,1.96764 -32.77074,-7.75972 -46.55125,-14.24384 -4.74756,-2.19989 -11.34838,-3.4743 -13.20166,-7.29522 -1.73657,-3.70538 -1.04217,-10.76953 -1.50549,-17.37036 -1.04218,-17.02258 -2.08435,-33.46629 -6.48413,-50.83666 -1.96881,-7.87407 -5.55865,-14.70598 -7.990781,-22.23227 -2.315426,-6.94862 -6.253048,-15.63379 -7.295223,-22.5824 -1.505493,-10.30504 8.22186,-10.88507 14.359374,-15.40155 9.61181,-6.94744 17.13811,-10.76953 27.55986,-17.02258 3.12769,-1.85211 12.39057,-6.48412 13.43273,-8.68518 2.08552,-4.28307 -3.58867,-10.30504 -5.09417,-13.66381 -2.43212,-5.32641 -3.70655,-9.84289 -4.05316,-15.05493 -8.68518,-1.38878 -15.40155,-6.59966 -19.338,-12.38939 -6.60199,-9.72736 -11.23401,-27.67657 -5.44312,-41.22484 0.46332,-1.04218 2.66321,-3.24322 3.011,-4.86426 0.69439,-3.24206 -1.27442,-7.527464 -1.38996,-11.000603 -0.57887,-17.718137 3.01098,-33.004145 14.93823,-38.330557 4.86308,-19.338001 22.23228,-25.706588 38.56163,-35.318403 6.13751,-3.589843 12.85388,-5.905269 19.80132,-8.454104 24.89666,-9.1473297 63.22721,-7.4107611 83.95517,8.221861 8.80071,6.600829 22.81231,20.612418 27.7921,30.803091 13.31603,26.74993 12.27503,71.564605 3.01099,104.220975 -1.27441,4.39978 -3.01099,10.76836 -5.55866,16.09594 -1.73656,3.70538 -7.17968,11.00061 -6.60083,14.24267 0.69557,3.35876 12.50727,12.27502 15.05493,14.70715 4.51649,4.39978 13.2005,10.19066 13.89489,15.74932 0.8111,5.90527 -2.54649,14.01159 -4.28307,19.68579 -5.55981,18.99138 -11.1173,36.47728 -17.48706,53.49985 z"
     fill="#231f20"
     id="path35"
     style="stroke-width:1.16704" />
  <path
     d="m 203.39318,156.34486 c 0.6944,-0.92663 4.63085,-2.43096 10.1895,0.23225 0,0 -6.60083,1.04218 -6.02196,12.04394 l -2.77876,-0.58002 c 0.11671,0.1167 -2.77874,-9.84289 -1.38878,-11.69617"
     fill="#f7e4cd"
     id="path36"
     style="stroke-width:1.16704" />
  <path
     d="m 251.33321,250.37517 c 0,1.62103 -1.38878,3.01098 -3.01098,3.01098 -1.62103,0 -3.01098,-1.38995 -3.01098,-3.01098 0,-1.6222 1.38995,-3.01098 3.01098,-3.01098 1.73773,0 3.01098,1.38878 3.01098,3.01098 m 3.011,14.0116 c 0,1.62219 -1.3888,3.01097 -3.011,3.01097 -1.62102,0 -3.01098,-1.38878 -3.01098,-3.01097 0,-1.62221 1.38996,-3.011 3.01098,-3.011 1.73775,0 3.011,1.27442 3.011,3.011"
     fill="#1d1919"
     id="path37"
     style="stroke-width:1.16704" />
</svg>
