<?xml version="1.0" encoding="UTF-8" standalone="no"?>
<svg
   width="2500"
   height="2500"
   viewBox="0 0 416.93811 417"
   preserveAspectRatio="xMinYMin"
   version="1.1"
   id="svg38"
   sodipodi:docname="jenkins.svg"
   inkscape:version="1.4.1-rc (06eac75fbf, 2025-03-29)"
   xmlns:inkscape="http://www.inkscape.org/namespaces/inkscape"
   xmlns:sodipodi="http://sodipodi.sourceforge.net/DTD/sodipodi-0.dtd"
   xmlns="http://www.w3.org/2000/svg"
   xmlns:svg="http://www.w3.org/2000/svg">
  <defs
     id="defs38" />
  <sodipodi:namedview
     id="namedview38"
     pagecolor="#505050"
     bordercolor="#ffffff"
     borderopacity="1"
     inkscape:showpageshadow="0"
     inkscape:pageopacity="0"
     inkscape:pagecheckerboard="1"
     inkscape:deskcolor="#505050"
     showgrid="false"
     inkscape:zoom="0.3008"
     inkscape:cx="767.95213"
     inkscape:cy="1250"
     inkscape:window-width="1920"
     inkscape:window-height="957"
     inkscape:window-x="0"
     inkscape:window-y="0"
     inkscape:window-maximized="1"
     inkscape:current-layer="svg38" />
  <path
     d="m 328.37398,169.278 c 0,69.457 -55.07,125.817 -123.039,125.817 -67.969,0 -123.038001,-56.36 -123.038001,-125.817 0,-69.458 55.070001,-125.818 123.038001,-125.818 67.97,0 123.04,56.36 123.04,125.818"
     fill="#d33833"
     id="path1" />
  <path
     d="m 87.356979,200.434 c 0,0 -8.93,-131.174 112.025001,-134.946 l -8.434,-14.09 -65.588,22.028 -18.753,21.532 -16.372001,31.355 -9.328,36.515 2.779,24.41"
     fill="#ef3d3a"
     id="path2" />
  <path
     d="m 121.09298,83.448 c -21.531001,22.127 -34.927001,52.59 -34.927001,86.326 0,33.736 13.396,64.198 34.927001,86.325 21.631,22.127 51.3,35.721 84.242,35.721 32.943,0 62.611,-13.594 84.242,-35.72 21.532,-22.128 34.927,-52.59 34.927,-86.326 0,-33.737 -13.395,-64.199 -34.927,-86.326 -21.63,-22.028 -51.299,-35.72 -84.242,-35.72 -32.843,0 -62.61,13.593 -84.242,35.72 z m -5.457,177.91 C 92.715979,237.941 78.525979,205.495 78.525979,169.774 c 0,-35.721 14.19,-68.168 37.110001,-91.684 22.921,-23.417 54.673,-38.003 89.7,-38.003 35.026,0 66.778,14.586 89.699,38.003 22.92,23.417 37.11,55.863 37.11,91.684 0,35.72 -14.19,68.167 -37.11,91.584 -22.921,23.516 -54.673,38.003 -89.7,38.003 -35.026,0 -66.778,-14.487 -89.699,-38.003 z"
     fill="#231f20"
     id="path3" />
  <path
     d="m 257.13098,169.972 -18.754,2.778 -25.302,2.878 -16.372,0.397 -15.975,-0.496 -12.205,-3.77 -10.816,-11.71 -8.434,-23.913 -1.885,-5.16 -11.212,-3.77 -6.55,-10.815 -4.663,-15.48 5.16,-13.593 12.205,-4.267 9.823,4.664 4.663,10.32 5.656,-0.894 1.885,-2.381 -1.885,-10.816 -0.496,-13.594 2.778,-18.753 -0.099,-10.716 8.533,-13.693 14.983,-10.816 26.196,-11.212 29.073,4.266 25.302,18.258 11.709,18.753 7.54,13.594 1.886,33.736 -5.656,29.073 -10.32,25.799 -9.723,13.792"
     fill="#f0d6b7"
     id="path4" />
  <path
     d="m 241.25498,251.039 -66.977,2.778 v 11.212 l 5.656,39.393 -2.779,3.274 -46.834,-15.975 -3.274,-5.656 -4.664,-52.986 -11.014,-31.752 -2.381,-7.541 37.507,-25.798 11.709,-4.664 10.319,12.7 8.93,7.939 10.32,3.274 4.663,1.39 5.656,24.409 4.267,5.16 10.815,-3.771 -7.541,14.585 40.682,19.25 -5.06,2.778"
     fill="#335061"
     id="path5" />
  <path
     d="m 130.12298,87.516 12.205,-4.266 9.823,4.663 4.663,10.32 5.656,-0.893 1.39,-5.656 -2.779,-10.816 2.778,-25.798 -2.381,-14.09 8.434,-9.823 18.257,-14.487 -5.16,-7.045 -25.798,12.7 -10.815,8.435 -6.053,13.097 -9.327,12.701 -2.778,14.983 1.885,15.975"
     fill="#6d6b6d"
     id="path6" />
  <path
     d="m 149.37298,43.46 c 0,0 7.044,-17.364 35.125,-25.798 28.08,-8.434 1.39,-6.053 1.39,-6.053 l -30.464,11.709 -11.707,11.708 -5.16,9.327 10.816,-0.893 m -14.09,40.782 c 0,0 -9.824,-32.844 27.683,-37.507 l -1.389,-5.656 -25.798,6.053 -7.541,24.41 1.885,15.974 5.16,-3.274"
     fill="#dcd9d8"
     id="path7" />
  <path
     d="m 150.26598,127.802 6.151,-5.954 c 0,0 2.779,0.298 3.275,3.572 0.496,3.275 1.885,32.844 22.028,48.72 1.885,1.488 -14.983,-2.382 -14.983,-2.382 l -14.984,-23.417 m 84.739,-29.47 c 0,0 1.091,-14.189 4.961,-13.097 3.87,1.091 3.87,4.96 3.87,4.96 0,0 -9.327,5.954 -8.831,8.137 m 38.896,-51.993 c 0,0 -7.74,1.587 -8.434,8.434 -0.695,6.846 8.434,1.389 9.823,0.893 m -58.046,-8.831 c 0,0 -10.32,1.389 -10.32,7.938 0,6.548 11.709,6.052 14.983,3.274 m -68.366,19.25 c 0,0 -17.76,-10.816 -19.645,-0.496 -1.885,10.319 -6.053,17.76 2.778,28.576 l -6.053,-1.885 -5.655,-14.487 -1.886,-14.09 10.816,-11.212 12.204,0.893 7.045,5.656 0.397,7.045 m 8.434,-29.569 c 0,0 7.937,-41.278 48.223,-49.216 33.14,-6.549 50.604,1.39 57.153,8.93 0,0 -29.569,-35.125 -57.65,-24.409 -28.08,10.816 -48.719,30.462 -48.223,43.064 0.794,21.63 0.496,21.63 0.496,21.63 m 108.651,-35.621 c 0,0 -13.593,-0.496 -14.09,11.708 0,0 0,1.886 0.894,3.771 0,0 10.815,-12.205 17.364,-5.656"
     fill="#f7e4cd"
     id="path8" />
  <path
     d="m 212.67798,49.414 c 0,0 -2.381,-18.654 -18.257,-7.839 -10.32,7.045 -9.328,16.868 -7.541,18.754 1.885,1.885 1.389,5.655 2.778,3.076 1.389,-2.58 0.992,-11.014 6.152,-13.396 5.06,-2.381 13.594,-4.96 16.868,-0.595"
     fill="#f7e4cd"
     id="path9" />
  <path
     d="m 168.62298,176.025 -44.058,19.645 c 0,0 18.258,72.633 8.93,95.157 l -6.548,-2.381 -0.496,-27.684 -12.205,-52.39 -5.16,-14.488 45.941,-30.958 13.594,13.098 m 4.466,40.186 6.251,7.641 v 28.08 h -7.441 c 0,0 -0.893,-19.646 -0.893,-22.027 0,-2.382 0.893,-10.816 0.893,-10.816 m 1.389,37.11 -21.135,0.893 6.053,4.267 14.982,2.382"
     fill="#49728b"
     id="path10" />
  <path
     d="m 245.42298,251.535 17.363,-0.496 4.267,43.063 -17.761,2.382 -3.87,-44.95"
     fill="#335061"
     id="path11" />
  <path
     d="m 250.08598,251.535 26.195,-1.39 c 0,0 10.816,-27.187 10.816,-28.576 0,-1.39 9.327,-39.392 9.327,-39.392 l -21.135,-22.028 -4.267,-3.77 -11.212,11.212 v 43.56 l -9.724,40.384"
     fill="#335061"
     id="path12" />
  <path
     d="m 261.79398,248.26 -16.372,3.275 2.382,13.098 c 6.052,2.778 16.372,-4.664 16.372,-4.664 m -1.886,-93.767 32.844,24.409 0.893,-11.213 -24.806,-22.92 -8.93,9.724"
     fill="#49728b"
     id="path13" />
  <path
     d="m 189.55898,343.814 -9.724,-39.392 -4.862,-29.073 -0.794,-21.532 43.956,-2.381 h 27.287 l -2.48,49.215 4.266,38.003 -0.496,7.045 -35.622,2.779 -21.531,-4.664"
     fill="#ffffff"
     id="path14" />
  <path
     d="m 239.36898,251.039 c 0,0 -2.381,48.72 4.664,83.448 0,0 -14.09,8.93 -34.63,11.212 l 39.393,-1.389 4.663,-2.778 -5.655,-76.8 -1.489,-16.472"
     fill="#dcd9d8"
     id="path15" />
  <path
     d="m 267.74798,290.431 18.257,-5.16 34.63,-1.885 5.16,-15.975 -9.328,-27.684 -10.815,-1.389 -14.983,4.664 -14.289,7.045 -7.64,-1.39 -5.954,2.382"
     fill="#ffffff"
     id="path16" />
  <path
     d="m 267.44998,281.005 c 0,0 12.205,-5.656 14.09,-5.16 l -5.16,-25.798 6.053,-2.382 c 0,0 4.267,24.41 4.267,27.188 0,0 26.195,1.389 28.576,1.389 0,0 5.656,-10.816 4.267,-22.028 l 5.16,14.983 0.496,8.434 -7.541,11.212 -8.434,1.886 -14.09,-0.496 -4.664,-6.053 -16.372,2.381 -5.16,1.886"
     fill="#dcd9d8"
     id="path17" />
  <path
     d="m 248.99398,247.764 -10.32,-26.195 -10.815,-15.48 c 0,0 2.382,-6.548 5.656,-6.548 h 10.816 l 10.32,3.77 -0.894,17.365 -4.763,27.088"
     fill="#ffffff"
     id="path18" />
  <path
     d="m 251.07798,238.834 c 0,0 -13.098,-25.302 -13.098,-29.073 0,0 2.382,-5.656 5.656,-4.266 3.275,1.389 10.32,5.16 10.32,5.16 v -8.931 l -15.976,-3.274 -10.815,1.389 18.257,43.262 3.77,0.496"
     fill="#dcd9d8"
     id="path19" />
  <path
     d="m 193.72598,177.017 -12.998,-1.39 -12.205,-3.77 v 4.267 l 5.953,6.549 18.754,8.434"
     fill="#ffffff"
     id="path20" />
  <path
     d="m 172.78998,178.406 c 0,0 14.486,6.053 19.25,4.664 l 0.495,5.656 -13.097,-2.779 -7.938,-5.656 1.29,-1.885"
     fill="#dcd9d8"
     id="path21" />
  <path
     d="m 267.74798,201.129 c -7.938,-0.199 -15.182,-1.191 -21.433,-2.977 0.397,-2.58 -0.397,-5.06 0.298,-6.946 1.786,-1.29 4.663,-1.29 7.342,-1.587 -2.282,-1.092 -5.556,-1.588 -8.136,-0.893 -0.1,-1.786 -0.893,-2.878 -1.39,-4.267 4.466,-1.588 14.984,-12.006 20.937,-8.633 2.878,1.687 4.069,11.014 4.267,15.678 0.198,3.77 -0.397,7.541 -1.885,9.625"
     fill="#d33833"
     id="path22" />
  <path
     d="m 267.74798,201.129 c -7.938,-0.199 -15.182,-1.191 -21.433,-2.977 0.397,-2.58 -0.397,-5.06 0.298,-6.946 1.786,-1.29 4.663,-1.29 7.342,-1.587 -2.282,-1.092 -5.556,-1.588 -8.136,-0.893 -0.1,-1.786 -0.893,-2.878 -1.39,-4.267 4.466,-1.588 14.984,-12.006 20.937,-8.633 2.878,1.687 4.069,11.014 4.267,15.678 0.198,3.77 -0.397,7.541 -1.885,9.625 z"
     stroke="#d33833"
     stroke-width="2"
     id="path23" />
  <path
     d="m 229.74498,188.13 c 0,0.596 0,1.19 -0.1,1.786 -2.48,1.588 -6.45,1.588 -9.228,2.977 3.97,0.198 7.145,1.19 9.923,2.48 -0.1,1.489 -0.1,3.077 -0.198,4.565 -4.565,3.076 -8.732,7.74 -14.09,10.716 -2.58,1.39 -11.411,4.962 -14.09,4.267 -1.489,-0.397 -1.687,-2.282 -2.282,-4.068 -1.29,-3.77 -4.267,-9.923 -4.565,-15.678 -0.298,-7.243 -1.091,-19.448 6.747,-17.96 6.35,1.191 13.693,4.069 18.555,6.748 3.076,1.786 4.763,3.77 9.328,4.167"
     fill="#d33833"
     id="path24" />
  <path
     d="m 229.74498,188.13 c 0,0.596 0,1.19 -0.1,1.786 -2.48,1.588 -6.45,1.588 -9.228,2.977 3.97,0.198 7.145,1.19 9.923,2.48 -0.1,1.489 -0.1,3.077 -0.198,4.565 -4.565,3.076 -8.732,7.74 -14.09,10.716 -2.58,1.39 -11.411,4.962 -14.09,4.267 -1.489,-0.397 -1.687,-2.282 -2.282,-4.068 -1.29,-3.77 -4.267,-9.923 -4.565,-15.678 -0.298,-7.243 -1.091,-19.448 6.747,-17.96 6.35,1.191 13.693,4.069 18.555,6.748 3.076,1.786 4.763,3.77 9.328,4.167 z"
     stroke="#d33833"
     stroke-width="2"
     id="path25" />
  <path
     d="m 234.20998,196.763 c -0.695,-3.97 -1.489,-5.06 -1.191,-8.534 10.617,-7.045 12.502,12.106 1.19,8.534"
     fill="#d33833"
     id="path26" />
  <path
     d="m 234.20998,196.763 c -0.695,-3.97 -1.489,-5.06 -1.191,-8.534 10.617,-7.045 12.502,12.106 1.19,8.534 z"
     stroke="#d33833"
     stroke-width="2"
     id="path27" />
  <path
     d="m 249.48998,199.938 c 0,0 -3.274,-4.664 -0.893,-6.053 2.382,-1.389 4.664,0 6.053,-2.381 1.39,-2.382 0,-3.77 0.496,-6.549 0.496,-2.778 2.778,-3.274 5.16,-3.77 2.381,-0.497 8.93,-1.39 9.823,0.893 l -2.778,-8.435 -5.656,-1.885 -17.761,10.32 -0.893,5.16 v 10.319 m -42.766,17.86 c -0.595,-7.343 -1.19,-14.586 -1.786,-21.929 -0.992,-10.914 2.58,-9.03 12.105,-9.03 1.489,0 8.93,1.688 9.427,2.78 2.58,5.258 -4.267,4.067 2.976,8.036 6.053,3.275 16.869,-1.984 14.388,-9.426 -1.39,-1.687 -7.144,-0.496 -9.228,-1.588 l -11.014,-5.655 c -4.663,-2.382 -15.38,-5.954 -20.341,-2.58 -12.602,8.533 0.794,29.966 5.259,38.896"
     fill="#ef3d3a"
     id="path28" />
  <path
     d="m 212.67798,49.414 c -12.8,-2.977 -19.15,5.358 -23.02,13.99 -3.473,-0.793 -2.084,-5.556 -1.19,-7.937 2.281,-6.251 11.51,-14.686 19.05,-13.495 3.175,0.397 7.541,3.374 5.16,7.442 m 62.214,14.486 h 0.595 c 2.878,5.954 5.358,12.305 9.03,17.663 -2.48,5.755 -18.456,10.716 -18.258,0.595 3.473,-1.488 9.427,-0.298 12.503,-2.282 -1.786,-4.862 -4.267,-9.03 -3.87,-15.975 m -55.764,0.199 c 2.778,5.06 3.67,10.319 7.54,14.09 1.787,1.686 5.16,3.77 3.474,8.532 -0.397,1.092 -3.275,3.573 -4.962,4.069 -6.052,1.786 -20.242,0.397 -15.479,-7.244 5.06,0.199 11.808,3.275 15.579,-0.397 -2.878,-4.564 -8.038,-13.693 -6.152,-19.05 m 53.482,51 c -9.129,5.855 -19.35,12.305 -34.431,10.816 -3.175,-2.778 -4.465,-9.03 -1.29,-13.097 1.587,2.778 0.595,7.938 5.16,8.731 8.533,1.489 18.455,-5.259 24.607,-7.54 3.77,-6.45 -0.297,-8.732 -3.77,-12.9 -7.045,-8.434 -16.372,-18.952 -16.075,-31.553 2.878,-2.084 3.076,3.175 3.473,4.068 3.671,8.533 12.9,19.547 19.547,26.89 1.687,1.786 4.366,3.572 4.664,4.763 0.893,3.373 -2.282,7.54 -1.885,9.823 m -120.857,-6.152 c -2.877,-1.687 -3.571,-8.831 -6.945,-9.03 -4.862,-0.297 -3.969,9.328 -3.969,14.983 -3.274,-2.976 -3.87,-12.304 -1.488,-17.066 -2.778,-1.39 -3.97,1.488 -5.557,2.48 2.084,-14.387 21.135,-6.648 17.96,8.633 m 126.611,12.204 c -4.267,8.137 -10.32,17.067 -22.822,17.365 -0.298,-2.58 -0.496,-6.648 0,-8.236 9.625,-0.992 15.578,-5.854 22.822,-9.129 m -59.932,5.259 c 7.938,4.168 22.623,4.664 33.538,4.366 0.595,2.382 0.595,5.358 0.595,8.236 -13.99,0.595 -30.462,-2.878 -34.133,-12.602 m -1.488,7.74 c 5.556,13.891 24.508,12.304 40.483,11.907 -0.694,1.786 -2.183,3.969 -4.167,4.663 -5.16,2.084 -19.25,3.672 -26.394,-0.099 -4.465,-2.381 -7.442,-7.839 -9.922,-11.014 -1.092,-1.488 -7.045,-5.358 0,-5.457"
     fill="#231f20"
     id="path29" />
  <path
     d="m 271.91498,210.654 c -6.45,11.113 -12.7,22.524 -20.34,32.248 3.174,-9.426 4.563,-25.302 5.06,-37.407 6.747,-3.176 12.502,0.694 15.28,5.16"
     fill="#81b0c4"
     id="path30" />
  <path
     d="m 306.74298,250.543 c -7.243,1.488 -12.304,8.533 -19.448,8.037 3.969,-5.458 10.716,-7.839 19.448,-8.037 m 3.175,11.311 c -5.953,0.596 -12.899,1.588 -18.852,1.092 2.877,-4.366 13.792,-2.779 18.852,-1.092 m 2.084,9.824 c -6.648,0.099 -14.884,0 -21.234,-0.497 3.77,-4.068 16.967,-1.488 21.234,0.497"
     fill="#231f20"
     id="path31" />
  <path
     d="m 259.41298,298.468 c 0.992,8.335 4.267,16.77 3.87,25.898 -3.672,1.19 -5.755,2.282 -10.717,2.282 -0.297,-7.74 -1.389,-19.646 -1.091,-27.088 2.381,0.198 5.953,-1.687 7.938,-1.092"
     fill="#dcd9d8"
     id="path32" />
  <path
     d="m 248.69698,175.43 c -3.374,2.182 -6.152,4.861 -9.427,7.243 -7.144,0.397 -11.014,-0.496 -16.173,-4.564 0.099,-0.298 0.595,-0.199 0.595,-0.596 7.64,3.374 17.364,-1.389 25.005,-2.084"
     fill="#f0d6b7"
     id="path33" />
  <path
     d="m 208.80798,227.324 c 2.084,-9.03 10.32,-13.792 17.761,-18.753 7.64,9.724 12.304,22.226 17.464,34.331 -12.205,-3.671 -24.608,-9.525 -35.225,-15.578"
     fill="#81b0c4"
     id="path34" />
  <path
     d="m 251.47498,299.659 c -0.298,7.442 0.694,19.25 1.091,27.088 4.962,0 7.045,-1.091 10.717,-2.282 0.397,-9.129 -2.878,-17.563 -3.87,-25.898 -1.985,-0.694 -5.557,1.191 -7.938,1.092 z m -76.602,-42.071 c 3.275,29.866 7.938,54.87 16.57,81.364 19.151,5.854 42.171,6.35 59.139,1.091 -3.076,-14.883 -1.786,-33.041 -3.572,-49.017 -1.39,-12.006 -0.695,-24.012 -2.58,-36.217 -20.54,-4.266 -49.513,-0.992 -69.557,2.779 z m 74.419,-2.58 c -0.199,12.8 0.595,25.5 1.588,38.3 4.96,-0.694 8.235,-1.19 12.8,-2.282 -1.489,-12.304 -1.29,-26.294 -4.366,-37.209 -3.473,0.1 -6.55,0 -10.022,1.19 z m 24.905,-2.084 c -2.381,-0.496 -5.06,0 -7.243,0 1.091,10.419 3.572,21.929 4.465,32.943 3.473,0.099 5.358,-1.588 8.236,-2.084 0.198,-9.625 -0.794,-22.921 -5.458,-30.859 z m 37.805,34.53 c 7.343,-1.786 11.907,-10.716 9.823,-19.944 -1.389,-6.152 -3.77,-17.86 -6.45,-21.83 -1.885,-2.877 -7.144,-6.747 -11.41,-4.068 -6.847,4.366 -18.853,5.656 -23.814,10.915 2.48,8.335 3.274,19.647 4.266,30.164 8.534,0.497 18.952,-2.38 26.097,0.695 -4.962,1.588 -11.312,1.588 -15.579,3.969 3.572,1.687 11.709,1.39 17.067,0.1 z m -68.068,-44.552 c -5.16,-12.105 -9.823,-24.607 -17.464,-34.331 -7.442,4.96 -15.578,9.724 -17.761,18.753 10.716,6.053 23.12,11.907 35.225,15.578 z m 12.7,-37.407 c -0.496,12.105 -1.885,27.981 -5.06,37.407 7.64,-9.823 13.892,-21.135 20.341,-32.248 -2.778,-4.465 -8.533,-8.335 -15.28,-5.16 z m -14.387,-5.06 c -2.878,-0.299 -5.358,3.373 -9.129,1.785 -0.893,0.992 -1.687,1.985 -2.58,2.977 8.335,10.12 12.205,24.41 18.655,36.217 3.473,-11.41 3.076,-23.814 3.87,-36.217 -4.763,0.198 -7.442,-4.465 -10.816,-4.763 z m -9.228,-12.206 c -0.298,3.473 0.496,4.565 1.19,8.534 11.312,3.572 9.427,-15.579 -1.19,-8.534 z m -12.602,-4.167 c -4.862,-2.68 -12.204,-5.557 -18.555,-6.747 -7.838,-1.489 -7.045,10.716 -6.747,17.96 0.298,5.754 3.275,11.807 4.565,15.677 0.595,1.786 0.793,3.671 2.282,4.068 2.679,0.596 11.609,-2.877 14.09,-4.267 5.358,-2.877 9.525,-7.54 14.09,-10.716 0.099,-1.488 0.099,-3.076 0.198,-4.564 -2.778,-1.39 -5.854,-2.282 -9.923,-2.48 2.68,-1.39 6.748,-1.39 9.228,-2.977 0,-0.596 0,-1.191 0.1,-1.787 -4.565,-0.496 -6.252,-2.48 -9.328,-4.167 z m -46.635,-8.434 c -4.068,4.167 11.41,9.724 16.273,10.022 0,-2.58 1.488,-5.06 1.19,-6.946 -5.854,-0.992 -13.494,-0.298 -17.463,-3.076 z m 50.01,1.885 c 0,0.397 -0.497,0.298 -0.596,0.596 5.259,4.068 9.128,4.96 16.173,4.564 3.176,-2.282 6.053,-5.06 9.427,-7.244 -7.74,0.695 -17.464,5.458 -25.005,2.084 z m 45.841,13.892 c -0.198,-4.565 -1.39,-13.991 -4.267,-15.678 -5.953,-3.473 -16.471,7.045 -20.936,8.633 0.496,1.389 1.29,2.48 1.389,4.266 2.68,-0.694 5.854,-0.198 8.136,0.893 -2.679,0.298 -5.556,0.298 -7.342,1.588 -0.596,1.885 0.198,4.366 -0.298,6.946 6.251,1.786 13.495,2.679 21.433,2.976 1.488,-1.984 2.083,-5.755 1.885,-9.624 z m -102.698,-11.808 c -1.29,-0.893 -9.922,-12.106 -11.113,-11.61 -15.578,6.153 -30.164,16.77 -43.163,26.89 12.403,26.692 17.464,59.337 18.357,90.791 14.19,6.648 26.691,16.273 46.04,17.265 -2.282,-15.776 -4.266,-29.966 -5.556,-44.85 -4.862,-2.083 -11.808,0.1 -16.372,-0.595 0,-5.457 6.945,-2.381 7.54,-6.052 0.398,-2.779 -3.87,-2.977 -2.48,-7.343 3.572,1.29 5.457,4.167 9.228,5.259 3.473,-7.541 0,-20.936 0.496,-27.287 0.1,-1.19 0.595,-6.549 3.274,-5.656 2.382,0.794 -0.099,14.388 0.1,20.341 0.198,5.557 -0.695,10.816 1.587,14.289 18.655,-2.58 37.607,-4.168 57.848,-4.763 -4.465,-1.885 -9.724,-3.671 -15.479,-6.946 -3.175,-1.786 -12.998,-5.457 -13.891,-8.434 -1.489,-4.763 3.77,-7.243 4.663,-11.312 -9.426,5.16 -11.212,-4.96 -13.494,-12.006 -1.985,-6.45 -3.175,-11.311 -3.671,-14.983 -8.236,-4.167 -16.968,-8.037 -23.914,-12.998 z m 94.462,-10.32 c 12.999,-6.25 15.38,23.517 10.22,33.142 0.794,2.877 3.473,3.969 4.565,6.548 -7.244,12.999 -15.28,25.104 -22.723,37.904 5.458,-3.473 13.396,-0.595 19.845,-3.175 2.382,-0.893 4.069,-6.35 5.855,-10.716 4.96,-11.907 10.12,-26.99 12.403,-38.3 0.496,-2.58 1.984,-8.237 1.587,-10.519 -0.595,-4.167 -6.152,-7.243 -9.03,-9.724 -5.258,-4.763 -8.533,-8.83 -14.09,-13.296 -2.083,3.275 -6.846,5.457 -8.632,8.137 z m -124.13,-115.2 c -6.152,6.847 -4.862,19.548 -4.167,28.676 11.212,-7.044 25.997,0.596 25.897,12.503 5.358,-0.1 1.985,-6.648 0.993,-10.915 -3.176,-13.792 5.358,-28.676 0.396,-41.277 -9.624,0.793 -17.463,4.663 -23.119,11.014 z m 44.254,-39.59 c -13.99,3.969 -31.95,14.189 -37.705,26.79 4.465,-0.694 7.541,-2.877 11.907,-3.175 1.687,-0.099 3.87,0.695 5.755,0.199 3.77,-0.992 7.045,-9.526 9.922,-12.701 2.779,-3.076 6.152,-4.465 8.435,-7.243 1.488,-0.695 3.67,-0.695 3.77,-2.878 -0.595,-0.695 -1.29,-1.19 -2.084,-0.992 z m 72.93,3.77 c -14.585,-8.235 -39.193,-14.387 -54.672,-6.648 -12.503,6.251 -29.37,16.57 -35.126,29.57 5.358,12.6 -1.587,24.11 -2.084,36.91 -0.198,6.847 3.176,12.702 3.473,20.144 -1.885,3.076 -7.442,3.373 -11.311,3.175 -1.29,-6.55 -3.572,-13.892 -10.32,-14.686 -9.525,-1.091 -16.57,6.847 -16.967,15.083 -0.496,9.724 7.442,25.798 18.753,24.707 4.366,-0.397 5.458,-4.763 10.22,-4.763 2.58,5.16 -3.968,6.747 -4.663,10.418 -0.199,0.993 0.496,4.664 0.992,6.45 2.084,8.434 6.648,19.448 11.113,25.898 5.755,8.235 16.968,9.426 29.073,10.22 2.183,-4.664 10.121,-4.267 15.28,-3.076 -6.25,-2.48 -12.005,-8.434 -16.768,-13.693 -5.458,-6.053 -11.014,-12.502 -11.312,-20.44 10.419,14.387 18.952,26.989 37.805,33.34 14.288,4.762 30.958,-2.184 41.972,-9.923 4.564,-3.176 7.243,-8.335 10.518,-12.9 12.105,-17.463 17.761,-42.27 16.57,-66.381 -0.496,-9.922 -0.496,-19.845 -3.87,-26.493 -3.472,-6.946 -15.28,-13.296 -22.226,-6.946 -1.29,-6.846 5.755,-11.014 13.99,-8.533 -5.853,-7.64 -12.005,-16.67 -20.44,-21.433 z m 27.188,224.348 c 11.411,-5.656 32.645,-15.182 39.69,0 2.68,5.655 5.755,15.082 7.045,20.936 1.885,8.137 -2.084,25.402 -10.518,28.08 -7.442,2.382 -16.074,2.283 -25.004,0.497 -1.092,-0.893 -2.183,-2.382 -3.076,-3.97 -6.35,-0.198 -12.403,0.299 -17.365,2.978 0.496,4.762 -2.679,5.457 -5.755,6.45 -2.183,8.83 4.465,20.34 2.878,28.278 -1.092,5.755 -8.137,6.648 -13.296,7.64 -0.199,3.176 0.198,5.855 0.595,8.534 -1.19,4.366 -6.45,6.846 -11.51,7.442 -16.57,1.984 -41.674,2.877 -57.55,-2.878 -4.466,-10.914 -7.938,-24.111 -11.61,-36.514 -15.479,1.686 -28.08,-6.649 -39.888,-12.205 -4.068,-1.885 -9.724,-2.977 -11.312,-6.251 -1.488,-3.175 -0.893,-9.228 -1.29,-14.884 -0.893,-14.586 -1.786,-28.676 -5.556,-43.56 -1.687,-6.747 -4.763,-12.601 -6.847,-19.05 -1.984,-5.954 -5.358,-13.396 -6.251,-19.35 -1.29,-8.83 7.045,-9.327 12.304,-13.197 8.236,-5.953 14.685,-9.228 23.615,-14.586 2.68,-1.587 10.617,-5.556 11.51,-7.442 1.787,-3.67 -3.075,-8.83 -4.365,-11.708 -2.084,-4.564 -3.176,-8.434 -3.473,-12.9 -7.442,-1.19 -13.197,-5.655 -16.57,-10.616 -5.657,-8.335 -9.626,-23.715 -4.664,-35.324 0.397,-0.893 2.282,-2.779 2.58,-4.168 0.595,-2.778 -1.092,-6.45 -1.191,-9.426 -0.496,-15.182 2.58,-28.28 12.8,-32.844 4.167,-16.57 19.05,-22.027 33.042,-30.263 5.259,-3.076 11.014,-5.06 16.967,-7.244 21.333,-7.838 54.177,-6.35 71.938,7.045 7.541,5.656 19.547,17.662 23.814,26.394 11.41,22.921 10.518,61.321 2.58,89.303 -1.092,3.77 -2.58,9.227 -4.763,13.792 -1.488,3.175 -6.152,9.426 -5.656,12.204 0.596,2.878 10.717,10.518 12.9,12.602 3.87,3.77 11.311,8.732 11.906,13.495 0.695,5.06 -2.182,12.006 -3.67,16.868 -4.764,16.273 -9.526,31.256 -14.984,45.842 z"
     fill="#231f20"
     id="path35" />
  <path
     d="m 205.73298,129.885 c 0.595,-0.794 3.968,-2.083 8.731,0.199 0,0 -5.656,0.893 -5.16,10.32 l -2.381,-0.497 c 0.1,0.1 -2.381,-8.434 -1.19,-10.022"
     fill="#f7e4cd"
     id="path36" />
  <path
     d="m 246.81098,210.456 c 0,1.389 -1.19,2.58 -2.58,2.58 -1.389,0 -2.58,-1.191 -2.58,-2.58 0,-1.39 1.191,-2.58 2.58,-2.58 1.489,0 2.58,1.19 2.58,2.58 m 2.58,12.006 c 0,1.39 -1.19,2.58 -2.58,2.58 -1.389,0 -2.58,-1.19 -2.58,-2.58 0,-1.39 1.191,-2.58 2.58,-2.58 1.489,0 2.58,1.092 2.58,2.58"
     fill="#1d1919"
     id="path37" />
  <g
     fill="#231f20"
     id="g38"
     transform="translate(77.632979)">
    <path
       d="m 36.614,374.276 c -0.794,0.1 -1.488,0.198 -2.084,0.298 -0.595,0.099 -1.19,0.198 -1.984,0.397 -0.893,0.198 -1.39,0.595 -1.588,1.19 -0.198,0.596 -0.397,1.19 -0.397,1.985 v 24.21 a 14.33,14.33 0 0 1 -1.389,6.153 c -0.893,1.885 -2.084,3.373 -3.671,4.663 -1.588,1.19 -3.374,2.183 -5.358,2.778 -1.985,0.596 -4.069,0.993 -6.252,0.993 -3.87,0 -6.945,-0.893 -9.327,-2.779 -2.381,-1.885 -3.572,-4.366 -3.572,-7.64 0,-1.885 0.496,-3.473 1.588,-4.763 1.091,-1.29 2.58,-1.885 4.465,-1.885 1.786,0 3.175,0.496 4.267,1.588 1.091,1.091 1.587,2.381 1.587,3.87 0,1.29 -0.496,2.58 -1.389,3.67 -0.893,1.092 -1.984,2.184 -3.175,3.077 v 0.397 c 0.198,0.396 0.595,0.793 1.19,1.091 0.596,0.298 1.29,0.397 1.886,0.397 2.48,0 4.465,-0.893 5.854,-2.68 1.39,-1.785 2.084,-4.464 2.084,-8.036 v -24.807 c 0,-0.694 -0.1,-1.389 -0.298,-1.885 -0.198,-0.496 -0.794,-0.893 -1.687,-1.29 -0.595,-0.297 -1.389,-0.496 -2.282,-0.694 -0.893,-0.199 -1.587,-0.298 -2.183,-0.397 v -2.382 h 23.417 v 2.481 z m 36.713,34.134 c -0.694,1.19 -1.587,2.281 -2.58,3.373 -0.992,1.091 -2.183,1.885 -3.473,2.679 -1.389,0.794 -2.778,1.39 -4.167,1.786 -1.39,0.397 -3.076,0.595 -4.862,0.595 -3.076,0 -5.656,-0.396 -7.938,-1.29 -2.183,-0.893 -4.068,-1.984 -5.457,-3.472 -1.489,-1.489 -2.481,-3.176 -3.275,-5.16 a 19.548,19.548 0 0 1 -1.091,-6.45 c 0,-2.083 0.397,-4.167 1.19,-6.052 0.794,-1.886 1.886,-3.672 3.275,-5.16 1.389,-1.488 3.175,-2.68 5.358,-3.572 a 18.709,18.709 0 0 1 7.144,-1.39 c 2.878,0 5.26,0.398 7.144,1.092 1.886,0.695 3.374,1.687 4.565,2.878 1.19,1.19 1.984,2.58 2.58,4.167 0.496,1.588 0.793,3.275 0.793,5.06 v 1.985 H 51.597 c 0,4.267 0.794,7.442 2.48,9.625 1.588,2.183 4.267,3.274 7.74,3.274 1.985,0 3.671,-0.496 5.259,-1.587 a 14.111,14.111 0 0 0 3.969,-4.069 l 2.282,1.687 z M 61.52,396.601 c 0,-1.191 -0.099,-2.481 -0.198,-3.771 -0.1,-1.29 -0.298,-2.381 -0.695,-3.175 -0.397,-0.992 -0.793,-1.687 -1.488,-2.183 -0.595,-0.496 -1.39,-0.695 -2.282,-0.695 -1.588,0 -2.878,0.794 -3.77,2.382 -0.993,1.587 -1.49,4.167 -1.588,7.64 z m 55.565,19.151 H 98.431 v -2.282 c 0.397,0 0.893,-0.1 1.39,-0.199 0.595,-0.099 0.991,-0.198 1.29,-0.297 0.396,-0.199 0.694,-0.596 0.892,-0.993 0.199,-0.397 0.298,-1.091 0.298,-1.885 V 395.61 c 0,-2.083 -0.397,-3.671 -1.19,-4.762 -0.795,-1.092 -1.886,-1.588 -3.474,-1.588 -0.794,0 -1.587,0.1 -2.282,0.397 -0.695,0.198 -1.39,0.595 -2.084,1.091 -0.595,0.397 -1.091,0.794 -1.488,1.29 -0.397,0.397 -0.695,0.794 -0.893,1.19 v 16.571 c 0,0.695 0.1,1.29 0.298,1.786 0.198,0.497 0.595,0.894 0.992,1.092 0.298,0.198 0.694,0.397 1.19,0.496 l 1.489,0.298 v 2.282 H 76.006 v -2.282 c 0.496,0 0.992,-0.1 1.588,-0.199 0.496,-0.099 0.992,-0.198 1.389,-0.297 0.695,-0.199 1.091,-0.596 1.39,-1.092 0.198,-0.496 0.396,-1.091 0.396,-1.885 v -18.059 c 0,-0.595 -0.198,-1.29 -0.496,-1.885 -0.298,-0.596 -0.794,-1.092 -1.29,-1.489 -0.397,-0.198 -0.794,-0.496 -1.39,-0.595 a 5.777,5.777 0 0 0 -1.884,-0.298 v -2.282 l 14.784,-0.794 0.496,0.496 v 4.466 h 0.1 a 29.808,29.808 0 0 0 2.083,-1.886 29.367,29.367 0 0 1 2.282,-1.786 c 0.794,-0.496 1.786,-0.893 2.977,-1.29 1.19,-0.397 2.58,-0.496 3.969,-0.496 3.374,0 5.854,0.992 7.541,2.878 1.687,1.885 2.48,4.465 2.48,7.64 v 15.181 c 0,0.794 0.1,1.39 0.298,1.786 0.199,0.497 0.695,0.794 1.29,1.092 0.298,0.1 0.695,0.298 1.191,0.397 0.496,0.1 0.992,0.198 1.687,0.298 v 2.38 z m 42.667,0 h -14.586 a 110.352,110.352 0 0 0 -4.961,-8.037 c -1.489,-2.183 -2.878,-4.267 -4.168,-6.053 l -1.786,1.588 v 6.747 c 0,0.694 0.1,1.389 0.298,1.786 0.198,0.496 0.595,0.794 1.29,1.091 0.397,0.199 0.794,0.298 1.29,0.397 0.496,0.1 0.992,0.199 1.488,0.199 v 2.282 h -19.25 v -2.282 c 0.497,0 0.993,-0.1 1.588,-0.199 0.496,-0.099 0.992,-0.198 1.39,-0.297 0.694,-0.199 1.09,-0.596 1.388,-1.092 0.199,-0.496 0.397,-1.091 0.397,-1.885 v -34.53 c 0,-0.695 -0.198,-1.39 -0.496,-2.084 -0.298,-0.695 -0.694,-1.29 -1.29,-1.687 -0.397,-0.198 -0.992,-0.496 -1.786,-0.595 -0.794,-0.199 -1.488,-0.298 -2.183,-0.298 v -2.282 l 15.38,-0.794 0.496,0.496 v 31.95 c 1.489,-1.389 3.275,-2.976 5.16,-4.762 1.885,-1.786 3.473,-3.275 4.564,-4.465 0.695,-0.695 1.092,-1.191 1.092,-1.588 0.099,-0.397 0.099,-0.595 0.099,-0.694 0,-0.397 -0.298,-0.695 -0.992,-0.893 -0.695,-0.199 -1.588,-0.497 -2.977,-0.695 v -2.183 h 15.677 v 2.183 c -2.083,0.595 -3.67,1.091 -4.762,1.588 -1.092,0.496 -2.283,1.19 -3.572,1.984 a 53.708,53.708 0 0 0 -2.481,1.786 c -0.794,0.595 -1.687,1.39 -2.778,2.282 1.984,2.977 3.87,5.656 5.556,8.137 1.687,2.48 3.473,5.16 5.358,7.938 0.596,0.992 1.39,1.587 2.382,1.984 0.992,0.298 1.885,0.496 2.877,0.596 v 2.38 h 0.298 z m 19.845,0 H 160.05 v -2.282 c 0.496,0 1.091,-0.1 1.587,-0.199 0.496,-0.099 0.992,-0.198 1.29,-0.297 0.695,-0.199 1.092,-0.596 1.39,-1.092 0.297,-0.496 0.396,-1.091 0.396,-1.885 v -18.059 c 0,-0.695 -0.198,-1.39 -0.496,-1.885 a 3.016,3.016 0 0 0 -1.19,-1.29 c -0.398,-0.199 -0.894,-0.496 -1.687,-0.695 -0.794,-0.198 -1.489,-0.397 -2.084,-0.397 v -2.282 l 15.181,-0.794 0.496,0.496 V 409.7 c 0,0.695 0.199,1.29 0.496,1.885 0.298,0.497 0.794,0.894 1.29,1.092 0.397,0.198 0.893,0.397 1.39,0.496 0.496,0.1 0.992,0.199 1.587,0.298 v 2.282 h -0.1 z m -4.465,-42.17 c 0,1.587 -0.596,2.877 -1.786,3.968 -1.191,1.092 -2.68,1.687 -4.267,1.687 -1.687,0 -3.076,-0.595 -4.366,-1.687 -1.19,-1.091 -1.786,-2.48 -1.786,-3.969 0,-1.587 0.595,-2.877 1.786,-4.068 1.19,-1.091 2.68,-1.687 4.366,-1.687 1.687,0 3.076,0.596 4.267,1.687 1.19,1.092 1.786,2.48 1.786,4.068 z m 48.223,42.17 h -18.654 v -2.282 c 0.397,0 0.893,-0.1 1.389,-0.199 0.595,-0.099 0.992,-0.198 1.29,-0.297 0.397,-0.199 0.694,-0.596 0.893,-0.993 0.198,-0.397 0.298,-1.091 0.298,-1.885 V 395.61 c 0,-2.083 -0.397,-3.671 -1.191,-4.762 -0.794,-1.092 -1.885,-1.588 -3.473,-1.588 -0.794,0 -1.588,0.1 -2.282,0.397 -0.695,0.297 -1.39,0.595 -2.084,1.091 -0.595,0.397 -1.091,0.794 -1.488,1.29 -0.397,0.397 -0.695,0.794 -0.893,1.19 v 16.571 c 0,0.695 0.099,1.29 0.297,1.786 0.199,0.497 0.596,0.894 0.993,1.092 0.297,0.198 0.694,0.397 1.19,0.496 l 1.489,0.298 v 2.282 h -18.853 v -2.282 c 0.496,0 0.992,-0.1 1.588,-0.199 0.496,-0.099 0.992,-0.198 1.389,-0.297 0.694,-0.199 1.091,-0.596 1.389,-1.092 0.198,-0.496 0.397,-1.091 0.397,-1.885 v -18.059 c 0,-0.595 -0.199,-1.29 -0.496,-1.885 -0.298,-0.596 -0.794,-1.092 -1.29,-1.489 -0.397,-0.198 -0.794,-0.496 -1.39,-0.595 a 5.777,5.777 0 0 0 -1.885,-0.298 v -2.282 l 14.785,-0.794 0.496,0.496 v 4.466 h 0.1 a 29.807,29.807 0 0 0 2.083,-1.886 29.367,29.367 0 0 1 2.282,-1.786 c 0.794,-0.496 1.786,-0.893 2.977,-1.29 1.19,-0.397 2.58,-0.496 3.969,-0.496 3.373,0 5.854,0.992 7.54,2.878 1.688,1.885 2.481,4.465 2.481,7.64 v 15.181 c 0,0.794 0.1,1.39 0.298,1.786 0.199,0.497 0.695,0.794 1.29,1.092 0.298,0.1 0.695,0.298 1.19,0.397 0.497,0.1 0.993,0.198 1.688,0.298 v 2.38 z m 17.165,1.091 c -1.984,0 -3.968,-0.297 -5.853,-0.893 -1.886,-0.595 -3.374,-1.19 -4.465,-1.885 l -0.893,2.084 h -2.382 l -0.397,-11.51 h 2.282 c 0.298,0.893 0.794,1.984 1.588,3.175 0.695,1.19 1.588,2.183 2.48,3.175 a 17.082,17.082 0 0 0 3.374,2.382 c 1.29,0.595 2.58,0.992 3.97,0.992 1.885,0 3.274,-0.397 4.167,-1.092 0.893,-0.694 1.389,-1.885 1.389,-3.373 0,-0.794 -0.199,-1.489 -0.596,-2.084 -0.396,-0.496 -0.992,-0.992 -1.686,-1.39 -0.794,-0.396 -1.687,-0.793 -2.68,-1.09 -0.992,-0.298 -2.182,-0.596 -3.571,-1.092 -1.39,-0.397 -2.58,-0.794 -3.573,-1.29 -0.992,-0.397 -2.083,-1.092 -3.076,-1.985 -0.893,-0.793 -1.686,-1.786 -2.182,-2.877 -0.596,-1.092 -0.794,-2.48 -0.794,-4.068 0,-2.878 1.19,-5.26 3.671,-7.045 2.48,-1.786 5.656,-2.68 9.625,-2.68 1.885,0 3.572,0.2 5.16,0.596 1.587,0.397 2.877,0.794 3.969,1.29 l 0.694,-1.786 h 2.381 l 0.497,10.518 h -2.183 c -0.695,-2.183 -1.985,-3.97 -3.672,-5.557 -1.786,-1.587 -3.671,-2.381 -5.655,-2.381 -1.588,0 -2.878,0.297 -3.771,0.992 -0.893,0.695 -1.39,1.588 -1.39,2.778 0,1.588 0.695,2.68 1.985,3.374 1.29,0.695 3.176,1.39 5.557,1.984 3.671,0.993 6.35,2.283 8.136,3.87 1.687,1.687 2.58,3.77 2.58,6.251 0,3.374 -1.29,6.053 -3.969,7.84 -2.977,1.785 -6.45,2.777 -10.716,2.777 z"
       id="path38" />
  </g>
</svg>
