<?xml version="1.0" encoding="UTF-8" standalone="no"?>
<svg
   height="1024pt"
   viewBox=".5 -.2 1023 1024.1"
   width="1024pt"
   version="1.1"
   id="svg2"
   sodipodi:docname="next-js.svg"
   inkscape:version="1.4.1-rc (06eac75fbf, 2025-03-29)"
   xmlns:inkscape="http://www.inkscape.org/namespaces/inkscape"
   xmlns:sodipodi="http://sodipodi.sourceforge.net/DTD/sodipodi-0.dtd"
   xmlns="http://www.w3.org/2000/svg"
   xmlns:svg="http://www.w3.org/2000/svg">
  <defs
     id="defs2" />
  <sodipodi:namedview
     id="namedview2"
     pagecolor="#505050"
     bordercolor="#ffffff"
     borderopacity="1"
     inkscape:showpageshadow="0"
     inkscape:pageopacity="0"
     inkscape:pagecheckerboard="1"
     inkscape:deskcolor="#505050"
     inkscape:document-units="pt"
     showgrid="false"
     inkscape:zoom="0.38946116"
     inkscape:cx="572.58598"
     inkscape:cy="731.78029"
     inkscape:window-width="1920"
     inkscape:window-height="957"
     inkscape:window-x="0"
     inkscape:window-y="0"
     inkscape:window-maximized="1"
     inkscape:current-layer="svg2" />
  <g
     inkscape:groupmode="layer"
     id="layer1"
     inkscape:label="Layer 1"
     style="fill:#f9f9f9" />
  <circle
     style="fill:#f9f9f9;stroke-width:1.28581"
     id="path3"
     cx="515.68658"
     cy="514.17474"
     r="493.75369" />
  <path
     d="m 484.21463,32.901753 c -2.07735,0.188851 -8.68716,0.849831 -14.63596,1.321959 C 332.37826,46.593465 203.865,120.62313 122.47014,234.40599 77.145848,297.67116 48.157188,369.4346 37.203818,445.44721 c -3.87145,26.5336 -4.343578,34.37093 -4.343578,70.34708 0,35.97615 0.472128,43.81347 4.343578,70.34708 C 63.454135,767.53296 192.53393,919.93588 367.599,976.4024 c 31.3493,10.10351 64.39827,16.99663 101.97967,21.15128 14.63596,1.60525 77.9011,1.60525 92.53708,0 64.87039,-7.17628 119.82609,-23.22866 174.02639,-50.89536 8.30945,-4.24915 9.91469,-5.38226 8.78158,-6.32652 -0.75541,-0.56656 -36.16501,-48.06263 -78.65653,-105.47339 L 589.02704,730.51811 492.2408,587.27448 c -53.25605,-78.75096 -97.06951,-143.14923 -97.44722,-143.14923 -0.37771,-0.0945 -0.75541,63.54843 -0.94426,141.26071 -0.28327,136.06729 -0.3777,141.54398 -2.07736,144.75446 -2.45506,4.62684 -4.34358,6.51536 -8.30946,8.59273 -3.02161,1.51079 -5.66553,1.79408 -19.92381,1.79408 h -16.33561 l -4.34358,-2.73833 c -2.83277,-1.79411 -4.91013,-4.15473 -6.32651,-6.89309 l -1.98295,-4.24914 0.18886,-189.32334 0.28327,-189.41775 2.9272,-3.68262 c 1.5108,-1.98293 4.72127,-4.53241 6.98749,-5.75994 3.87145,-1.88852 5.38226,-2.07738 21.71788,-2.07738 19.26283,0 22.4733,0.75541 27.47787,6.23209 1.41637,1.51081 53.82259,80.45061 116.52118,175.5372 62.69861,95.08659 148.43704,224.9218 190.55088,288.65908 l 76.48473,115.86021 3.87146,-2.5495 c 34.27648,-22.28444 70.53591,-54.01144 99.24131,-87.06041 61.09336,-70.15822 100.46884,-155.70782 113.68851,-246.92294 3.87139,-26.53361 4.34352,-34.37093 4.34352,-70.34708 0,-35.97615 -0.47213,-43.81348 -4.34352,-70.34708 C 968.24027,264.05564 839.16047,111.6527 664.09541,55.186196 633.21823,45.177081 600.35813,38.284013 563.53213,34.129287 554.46728,33.185031 492.05194,32.146349 484.21463,32.901753 Z M 681.94184,325.05457 c 4.53243,2.26622 8.21502,6.60979 9.53699,11.14221 0.75541,2.45508 0.94426,54.95572 0.75541,173.27099 L 691.95096,679.245 662.01804,633.35417 631.99069,587.46333 V 464.04905 c 0,-79.78962 0.37771,-124.6418 0.94426,-126.81358 1.51082,-5.28783 4.8157,-9.44257 9.34813,-11.89762 3.87145,-1.98295 5.28784,-2.1718 20.11266,-2.1718 13.97499,0 16.43005,0.18885 19.5461,1.88852 z"
     id="path1"
     style="stroke-width:0.944256" />
  <path
     d="m 775.19007,930.48533 c -3.38129,2.12538 -4.44399,3.57451 -1.44912,1.93217 2.12538,-1.25591 5.60329,-3.86434 5.02364,-3.96095 -0.28983,0 -1.93217,0.96608 -3.57452,2.02878 z m -6.66599,4.34738 c -1.73895,1.35252 -1.73895,1.44913 0.38644,0.38644 1.1593,-0.57966 2.12539,-1.25592 2.12539,-1.44913 0,-0.77287 -0.48305,-0.57965 -2.51183,1.06269 z m -4.83042,2.89826 c -1.73896,1.35252 -1.73896,1.44913 0.38643,0.38643 1.1593,-0.57965 2.12539,-1.25591 2.12539,-1.44913 0,-0.77286 -0.48304,-0.57965 -2.51182,1.0627 z m -4.83043,2.89825 c -1.73895,1.35252 -1.73895,1.44913 0.38644,0.38644 1.1593,-0.57965 2.12538,-1.25591 2.12538,-1.44913 0,-0.77287 -0.48304,-0.57965 -2.51182,1.06269 z m -7.34225,3.86434 c -3.67112,1.93218 -3.4779,2.70504 0.19322,0.86948 1.64234,-0.86948 2.89826,-1.73895 2.89826,-1.93217 0,-0.67626 -0.0966,-0.57965 -3.09148,1.06269 z"
     id="path2"
     style="stroke-width:0.966085" />
</svg>
