<?xml version="1.0" encoding="UTF-8" standalone="no"?>
<svg
   version="1.0"
   width="2500pt"
   height="2500pt"
   viewBox="0 0 2500 2500"
   preserveAspectRatio="xMidYMid"
   id="svg1"
   sodipodi:docname="nginx.svg"
   inkscape:version="1.4.1-rc (06eac75fbf, 2025-03-29)"
   xmlns:inkscape="http://www.inkscape.org/namespaces/inkscape"
   xmlns:sodipodi="http://sodipodi.sourceforge.net/DTD/sodipodi-0.dtd"
   xmlns="http://www.w3.org/2000/svg"
   xmlns:svg="http://www.w3.org/2000/svg">
  <defs
     id="defs1" />
  <sodipodi:namedview
     id="namedview1"
     pagecolor="#505050"
     bordercolor="#ffffff"
     borderopacity="1"
     inkscape:showpageshadow="0"
     inkscape:pageopacity="0"
     inkscape:pagecheckerboard="1"
     inkscape:deskcolor="#505050"
     inkscape:document-units="pt"
     inkscape:zoom="0.14662067"
     inkscape:cx="2046.0962"
     inkscape:cy="1616.416"
     inkscape:window-width="1920"
     inkscape:window-height="957"
     inkscape:window-x="0"
     inkscape:window-y="0"
     inkscape:window-maximized="1"
     inkscape:current-layer="g1" />
  <g
     transform="matrix(0.1,0,0,-0.1,0,680)"
     fill="#000000"
     stroke="none"
     id="g1">
    <rect
       style="fill:#ffffff;stroke-width:29.7349"
       id="rect1"
       width="13479.842"
       height="13336.439"
       x="5737.3174"
       y="-1058.371"
       transform="scale(1,-1)" />
    <path
       d="m 12424.854,6346.5536 c -47.576,-19.8233 -388.536,-210.1269 -753.285,-420.2539 -364.749,-214.0916 -888.084,-515.4057 -1165.61,-677.9568 C 9780.4264,4832.0537 9233.3034,4518.8456 7044.8113,3254.1192 4646.1923,1870.453 4277.479,1656.3614 3456.7944,1184.5669 2433.9123,597.79727 2295.1492,506.6101 2199.9973,363.88236 L 2108.8102,229.08393 V -5646.5415 -11522.167 l 91.1871,-134.799 c 87.2226,-130.833 634.3456,-455.935 4369.0549,-2604.781 888.0837,-511.441 1780.1321,-1026.847 3072.6111,-1772.203 709.6737,-412.324 1415.3827,-816.72 1566.0407,-903.942 154.621,-87.223 491.617,-281.491 753.285,-436.113 404.395,-241.844 499.547,-281.49 658.133,-281.49 103.082,0 210.127,19.823 241.845,43.611 27.752,23.788 285.455,178.409 566.946,340.96 285.456,158.587 808.791,463.866 1169.575,670.028 360.784,210.127 1233.009,713.639 1942.683,1121.999 709.674,408.36 1581.899,911.871 1942.683,1121.998 360.784,206.163 876.19,507.477 1149.751,662.098 2834.732,1633.44 3306.526,1910.966 3385.819,2021.977 l 83.258,118.94 v 5915.2718 5915.27205 l -83.258,111.01047 c -83.257,111.01046 -348.89,277.52617 -1581.899,983.23558 -348.89,202.1976 -1447.1,832.5785 -2438.265,1407.4541 -991.165,574.8757 -2089.376,1205.2565 -2438.266,1407.4542 -348.89,198.233 -1336.09,769.1439 -2196.421,1268.691 -1577.935,911.8717 -1732.557,979.2709 -1938.719,892.0484 z M 8650.4985,340.0944 C 8931.9893,252.87189 9292.7733,74.462209 9491.0063,-88.08883 9681.3099,-238.74589 11096.693,-1907.8676 15013.777,-6617.8831 l 872.225,-1046.6701 19.823,3584.0522 19.824,3588.0169 114.975,210.12695 c 146.692,261.667532 364.748,459.90051 654.168,598.66359 186.339,87.22252 277.527,103.08115 578.841,103.08115 301.314,0 388.536,-15.85863 574.875,-103.08115 285.456,-134.79842 539.194,-384.571972 666.063,-662.09814 l 107.046,-225.98559 V -5606.8949 -10642.013 l -91.187,-170.48 c -277.526,-515.406 -808.791,-812.755 -1455.03,-812.755 -531.265,0 -1086.317,174.445 -1494.677,471.794 -111.01,83.258 -459.9,463.865 -781.038,844.473 -321.137,384.5718 -1455.03,1740.4854 -2521.523,3017.1058 -1066.494,1276.6204 -2212.28,2644.4279 -2545.3115,3044.8585 l -606.5929,725.5327 -7.9293,-3580.0876 -11.894,-3580.0874 -91.1872,-186.339 c -281.4908,-570.911 -923.7656,-872.225 -1554.1465,-729.498 -150.6571,31.718 -344.9254,103.081 -428.1832,158.587 -225.9856,142.727 -471.7945,440.077 -562.9817,685.886 -79.2932,214.091 -79.2932,261.667 -71.3639,5197.6687 l 11.894,4983.57701 95.1518,190.30365 c 182.3744,372.6780012 543.1584,642.27485 1014.9529,765.1793 249.7735,67.39921 832.5785,43.61125 1129.928,-43.61126 z"
       id="path1"
       style="fill:#55d400;stroke-width:3.96466" />
    <text
       xml:space="preserve"
       style="font-size:2515.37px;font-family:Helvetica;-inkscape-font-specification:Helvetica;text-align:start;writing-mode:lr-tb;direction:ltr;text-anchor:start;fill:#ffffff;stroke-width:209.614"
       x="8531.6084"
       y="14128.503"
       id="text1"
       transform="scale(1,-1)"><tspan
         sodipodi:role="line"
         id="tspan1"
         style="font-style:normal;font-variant:normal;font-weight:normal;font-stretch:normal;font-family:'URW Gothic';-inkscape-font-specification:'URW Gothic';stroke-width:209.614"
         x="8531.6084"
         y="14128.503">NGINX</tspan></text>
  </g>
</svg>
