<?xml version="1.0" encoding="UTF-8" standalone="no"?>
<svg
   width="2600"
   height="2500"
   viewBox="0 0 267.30923 257"
   preserveAspectRatio="xMidYMid"
   version="1.1"
   id="svg1"
   sodipodi:docname="prometheus.svg"
   inkscape:version="1.4.1-rc (06eac75fbf, 2025-03-29)"
   xmlns:inkscape="http://www.inkscape.org/namespaces/inkscape"
   xmlns:sodipodi="http://sodipodi.sourceforge.net/DTD/sodipodi-0.dtd"
   xmlns="http://www.w3.org/2000/svg"
   xmlns:svg="http://www.w3.org/2000/svg">
  <defs
     id="defs1" />
  <sodipodi:namedview
     id="namedview1"
     pagecolor="#505050"
     bordercolor="#ffffff"
     borderopacity="1"
     inkscape:showpageshadow="0"
     inkscape:pageopacity="0"
     inkscape:pagecheckerboard="1"
     inkscape:deskcolor="#505050"
     inkscape:zoom="0.3008"
     inkscape:cx="1243.3511"
     inkscape:cy="1250"
     inkscape:window-width="1920"
     inkscape:window-height="957"
     inkscape:window-x="0"
     inkscape:window-y="0"
     inkscape:window-maximized="1"
     inkscape:current-layer="svg1" />
  <path
     d="M 134.15327,0.32520731 C 63.463268,0.32520731 6.1522685,57.629207 6.1522685,128.32221 c 0,70.69 57.3109995,127.998 128.0010015,127.998 70.69,0 127.999,-57.308 127.999,-127.998 0,-70.694003 -57.311,-127.99700269 -127.999,-127.99700269 z m 0,239.56000269 c -20.112,0 -36.419004,-13.435 -36.419004,-30.004 h 72.838004 c 0,16.566 -16.306,30.004 -36.419,30.004 z m 60.153,-39.94 H 73.994268 v -21.817 H 194.30827 v 21.816 h -0.002 z m -0.432,-33.045 H 74.337268 c -0.398,-0.458 -0.804,-0.91 -1.188,-1.375 -12.315,-14.954 -15.216,-22.76 -18.032,-30.716 -0.048,-0.262 14.933,3.06 25.556,5.45 0,0 5.466,1.265 13.457998,2.722 -7.672998,-8.994 -12.229998,-20.428 -12.229998,-32.116 0,-25.658003 19.680002,-48.079003 12.579998,-66.201003 6.910004,0.562 14.300004,14.583 14.800004,36.505 7.346,-10.152 10.42,-28.69 10.42,-40.056 0,-11.769 7.755,-25.44 15.512,-25.907 -6.915,11.396 1.79,21.165 9.53,45.4 2.902,9.103 2.532,24.423 4.772,34.138 0.744,-20.178 4.213,-49.62 17.014,-59.784 -5.647,12.8 0.836,28.818 5.27,36.518 7.154,12.424 11.49,21.836 11.49,39.638003 0,11.936 -4.407,23.173 -11.84,31.958 8.452,-1.586 14.289,-3.016 14.289,-3.016 l 27.45,-5.355 c 0.002,-0.002 -3.987,16.401 -19.314,32.197 z"
     fill="#da4e31"
     id="path1" />
</svg>
